<svg width="91" height="90" viewBox="0 0 91 90" fill="none" xmlns="http://www.w3.org/2000/svg">
<g filter="url(#filter0_d_4825_9911)">
<rect x="22.8106" y="21.999" width="46" height="46" rx="6" fill="#8C8C00"/>
</g>
<path fill-rule="evenodd" clip-rule="evenodd" d="M36.8178 49.5826V52.0523C36.8178 52.3798 36.9479 52.6939 37.1795 52.9255C37.4111 53.1571 37.7252 53.2872 38.0527 53.2872H56.5758C56.9033 53.2872 57.2174 53.1571 57.449 52.9255C57.6806 52.6939 57.8107 52.3798 57.8107 52.0523V42.1733C57.8107 41.8458 57.6806 41.5317 57.449 41.3002C57.2174 41.0686 56.9033 40.9385 56.5758 40.9385H55.0384V43.2039C55.2076 43.4563 55.4363 43.6631 55.7045 43.806C55.9727 43.9489 56.2719 44.0235 56.5758 44.0232V50.2C56.0863 50.2028 55.6179 50.3992 55.2728 50.7462C54.9277 51.0933 54.734 51.5629 54.734 52.0523H39.9019C39.8954 51.5657 39.6978 51.1011 39.3517 50.7589C39.0056 50.4167 38.5388 50.2244 38.0521 50.2235V49.5826H36.8178Z" fill="white"/>
<path d="M45.7769 42.1738C45.7769 42.8289 45.5167 43.4571 45.0535 43.9202C44.5903 44.3834 43.9621 44.6436 43.3071 44.6436C42.6521 44.6436 42.0239 44.3834 41.5607 43.9202C41.0976 43.4571 40.8374 42.8289 40.8374 42.1738C40.8374 41.5188 41.0976 40.8906 41.5607 40.4275C42.0239 39.9643 42.6521 39.7041 43.3071 39.7041C43.9621 39.7041 44.5903 39.9643 45.0535 40.4275C45.5167 40.8906 45.7769 41.5188 45.7769 42.1738Z" fill="white"/>
<path fill-rule="evenodd" clip-rule="evenodd" d="M34.0455 35.999C33.718 35.999 33.4039 36.1291 33.1723 36.3607C32.9407 36.5923 32.8106 36.9064 32.8106 37.2339V47.1129C32.8106 47.4404 32.9407 47.7545 33.1723 47.9861C33.4039 48.2177 33.718 48.3478 34.0455 48.3478H52.5686C52.8961 48.3478 53.2102 48.2177 53.4418 47.9861C53.6734 47.7545 53.8035 47.4404 53.8035 47.1129V37.2339C53.8035 36.9064 53.6734 36.5923 53.4418 36.3607C53.2102 36.1291 52.8961 35.999 52.5686 35.999H34.0455ZM35.8966 37.2339H50.7169C50.7174 37.7247 50.9127 38.1952 51.2599 38.542C51.6071 38.8889 52.0778 39.0837 52.5686 39.0837V45.2606C52.0791 45.263 51.6104 45.4593 51.2652 45.8064C50.9201 46.1536 50.7265 46.6233 50.7268 47.1129H35.8954C35.8892 46.6261 35.6917 46.1614 35.3455 45.8191C34.9993 45.4769 34.5323 45.2846 34.0455 45.284V39.0862C34.2887 39.0862 34.5295 39.0383 34.7542 38.9452C34.9788 38.8521 35.183 38.7156 35.3549 38.5436C35.5268 38.3716 35.6631 38.1674 35.756 37.9427C35.849 37.7179 35.8967 37.4771 35.8966 37.2339Z" fill="white"/>
<defs>
<filter id="filter0_d_4825_9911" x="0.810638" y="-0.000976562" width="90" height="90" filterUnits="userSpaceOnUse" color-interpolation-filters="sRGB">
<feFlood flood-opacity="0" result="BackgroundImageFix"/>
<feColorMatrix in="SourceAlpha" type="matrix" values="0 0 0 0 0 0 0 0 0 0 0 0 0 0 0 0 0 0 127 0" result="hardAlpha"/>
<feMorphology radius="3" operator="erode" in="SourceAlpha" result="effect1_dropShadow_4825_9911"/>
<feOffset/>
<feGaussianBlur stdDeviation="12.5"/>
<feComposite in2="hardAlpha" operator="out"/>
<feColorMatrix type="matrix" values="0 0 0 0 0.175 0 0 0 0 0.175 0 0 0 0 0.175 0 0 0 0.3 0"/>
<feBlend mode="normal" in2="BackgroundImageFix" result="effect1_dropShadow_4825_9911"/>
<feBlend mode="normal" in="SourceGraphic" in2="effect1_dropShadow_4825_9911" result="shape"/>
</filter>
</defs>
</svg>
