<svg width="91" height="90" viewBox="0 0 91 90" fill="none" xmlns="http://www.w3.org/2000/svg">
<g filter="url(#filter0_d_4825_9936)">
<rect x="22.8106" y="21.999" width="46" height="46" rx="6" fill="#8C8C00"/>
</g>
<path d="M42.4375 54.999L42.0196 51.639C41.7932 51.5515 41.5797 51.4465 41.3791 51.324C41.1786 51.2015 40.9828 51.0703 40.792 50.9303L37.6838 52.2428L34.8106 47.2553L37.5009 45.2078C37.4835 45.0853 37.4748 44.967 37.4748 44.8529V44.1452C37.4748 44.0311 37.4835 43.9128 37.5009 43.7903L34.8106 41.7428L37.6838 36.7553L40.792 38.0678C40.9835 37.9278 41.1838 37.7965 41.3927 37.674C41.6017 37.5515 41.8106 37.4465 42.0196 37.359L42.4375 33.999H48.1838L48.6017 37.359C48.8281 37.4465 49.0415 37.5515 49.2421 37.674C49.4427 37.7965 49.6385 37.9278 49.8293 38.0678L52.9375 36.7553L55.8106 41.7428L53.1203 43.7903C53.1378 43.9128 53.1465 44.0311 53.1465 44.1452V44.8529C53.1465 44.967 53.129 45.0853 53.0942 45.2078L55.7845 47.2553L52.9114 52.2428L49.8293 50.9303C49.6378 51.0703 49.4375 51.2015 49.2286 51.324C49.0196 51.4465 48.8106 51.5515 48.6017 51.639L48.1838 54.999H42.4375ZM45.3629 48.174C46.3728 48.174 47.2348 47.8153 47.9487 47.0978C48.6626 46.3803 49.0196 45.514 49.0196 44.499C49.0196 43.484 48.6626 42.6178 47.9487 41.9003C47.2348 41.1828 46.3728 40.824 45.3629 40.824C44.3355 40.824 43.469 41.1828 42.7635 41.9003C42.0579 42.6178 41.7055 43.484 41.7062 44.499C41.7062 45.514 42.0586 46.3803 42.7635 47.0978C43.4684 47.8153 44.3348 48.174 45.3629 48.174Z" fill="white"/>
<defs>
<filter id="filter0_d_4825_9936" x="0.810638" y="-0.000976562" width="90" height="90" filterUnits="userSpaceOnUse" color-interpolation-filters="sRGB">
<feFlood flood-opacity="0" result="BackgroundImageFix"/>
<feColorMatrix in="SourceAlpha" type="matrix" values="0 0 0 0 0 0 0 0 0 0 0 0 0 0 0 0 0 0 127 0" result="hardAlpha"/>
<feMorphology radius="3" operator="erode" in="SourceAlpha" result="effect1_dropShadow_4825_9936"/>
<feOffset/>
<feGaussianBlur stdDeviation="12.5"/>
<feComposite in2="hardAlpha" operator="out"/>
<feColorMatrix type="matrix" values="0 0 0 0 0.175 0 0 0 0 0.175 0 0 0 0 0.175 0 0 0 0.3 0"/>
<feBlend mode="normal" in2="BackgroundImageFix" result="effect1_dropShadow_4825_9936"/>
<feBlend mode="normal" in="SourceGraphic" in2="effect1_dropShadow_4825_9936" result="shape"/>
</filter>
</defs>
</svg>
