<svg width="90" height="90" viewBox="0 0 90 90" fill="none" xmlns="http://www.w3.org/2000/svg">
<g filter="url(#filter0_d_4825_9943)">
<rect x="22" y="22" width="46" height="46" rx="6" fill="#8C8C00"/>
</g>
<path d="M57.1749 49.0509C57.3748 49.1665 57.6049 49.2189 57.8351 49.2014C58.0653 49.1838 58.2849 49.0971 58.4649 48.9527C58.645 48.8082 58.7772 48.6127 58.8443 48.3917C58.9113 48.1708 58.91 47.9348 58.8406 47.7146L55.1045 35.8577C55.0377 35.6455 54.9106 35.4574 54.7388 35.3162C54.5669 35.1751 54.3576 35.087 54.1366 35.0628C53.9155 35.0386 53.6921 35.0792 53.4938 35.1798C53.2954 35.2804 53.1306 35.4365 53.0195 35.6292L40.8008 56.7926C40.6489 57.0557 40.6077 57.3684 40.6863 57.6619C40.765 57.9553 40.957 58.2055 41.2201 58.3574C41.4832 58.5093 41.7958 58.5505 42.0893 58.4718C42.3828 58.3932 42.633 58.2012 42.7849 57.9381L50.2306 45.0417L57.1749 49.0509Z" fill="white"/>
<path d="M33.3384 41.4615L40.2827 45.4708L47.7285 32.5743C47.8804 32.3112 48.1306 32.1192 48.424 32.0406C48.7175 31.962 49.0302 32.0031 49.2933 32.155C49.5564 32.3069 49.7484 32.5571 49.827 32.8506C49.9056 33.1441 49.8645 33.4567 49.7125 33.7198L37.4938 54.8833C37.3827 55.0759 37.2179 55.2321 37.0196 55.3326C36.8212 55.4332 36.5978 55.4739 36.3768 55.4496C36.1557 55.4254 35.9464 55.3373 35.7746 55.1962C35.6027 55.0551 35.4756 54.8669 35.4089 54.6548L31.6728 42.7978C31.6033 42.5777 31.602 42.3416 31.6691 42.1207C31.7361 41.8998 31.8683 41.7043 32.0484 41.5598C32.2285 41.4153 32.448 41.3286 32.6782 41.3111C32.9084 41.2936 33.1386 41.346 33.3384 41.4615Z" fill="white"/>
<defs>
<filter id="filter0_d_4825_9943" x="0" y="0" width="90" height="90" filterUnits="userSpaceOnUse" color-interpolation-filters="sRGB">
<feFlood flood-opacity="0" result="BackgroundImageFix"/>
<feColorMatrix in="SourceAlpha" type="matrix" values="0 0 0 0 0 0 0 0 0 0 0 0 0 0 0 0 0 0 127 0" result="hardAlpha"/>
<feMorphology radius="3" operator="erode" in="SourceAlpha" result="effect1_dropShadow_4825_9943"/>
<feOffset/>
<feGaussianBlur stdDeviation="12.5"/>
<feComposite in2="hardAlpha" operator="out"/>
<feColorMatrix type="matrix" values="0 0 0 0 0.175 0 0 0 0 0.175 0 0 0 0 0.175 0 0 0 0.3 0"/>
<feBlend mode="normal" in2="BackgroundImageFix" result="effect1_dropShadow_4825_9943"/>
<feBlend mode="normal" in="SourceGraphic" in2="effect1_dropShadow_4825_9943" result="shape"/>
</filter>
</defs>
</svg>
