<svg width="338" height="216" viewBox="0 0 338 216" fill="none" xmlns="http://www.w3.org/2000/svg">
<path d="M305.964 155.294C305.279 153.479 304.084 151.906 302.526 150.77L305.4 147.856L304.554 147L288.6 163.144L289.446 164L292.506 160.91C293.872 161.715 295.42 162.152 297 162.179C298.956 162.104 300.847 161.451 302.44 160.301C304.034 159.151 305.259 157.554 305.964 155.706C306.012 155.573 306.012 155.427 305.964 155.294ZM297 159.446C296.173 159.446 295.368 159.178 294.702 158.681L295.8 157.583C296.256 157.835 296.779 157.931 297.293 157.857C297.807 157.782 298.283 157.541 298.651 157.17C299.018 156.798 299.256 156.317 299.329 155.797C299.403 155.277 299.308 154.746 299.058 154.286L300.144 153.187C300.567 153.774 300.821 154.469 300.878 155.193C300.935 155.917 300.793 156.644 300.468 157.291C300.142 157.939 299.646 158.483 299.034 158.864C298.422 159.244 297.718 159.446 297 159.446ZM290.118 159.027L293.118 155.992C293.103 155.828 293.097 155.664 293.1 155.5C293.102 154.454 293.513 153.451 294.244 152.711C294.975 151.971 295.966 151.555 297 151.554C297.159 151.554 297.317 151.565 297.474 151.584L299.742 149.295C298.86 148.988 297.934 148.828 297 148.821C295.044 148.896 293.153 149.549 291.56 150.699C289.967 151.849 288.742 153.446 288.036 155.294C287.988 155.427 287.988 155.573 288.036 155.706C288.497 156.947 289.206 158.077 290.118 159.027Z" fill="white"/>
<rect x="338" y="193" width="312" height="147" rx="10" transform="rotate(-180 338 193)" fill="url(#paint0_linear_473_6034)"/>
<path d="M272.754 192.643L252.569 192.643C249.554 192.643 246.661 191.525 244.529 189.534L231.04 176.94C226.6 172.794 226.6 166.072 231.04 161.926L257.029 137.661C261.47 133.515 268.669 133.515 273.11 137.661L306.635 168.963C311.119 173.149 311.069 179.952 306.523 184.08L300.403 189.637C298.28 191.565 295.436 192.643 292.475 192.643L272.754 192.643Z" fill="#B0B014" fill-opacity="0.37"/>
<path d="M79.3446 45.5897L120.342 45.5898C123.413 45.5898 126.355 46.7495 128.501 48.8052L161.724 80.6411C166.117 84.8506 166.023 91.5831 161.516 95.6682L99.9138 151.496C95.4122 155.575 88.2136 155.468 83.8353 151.257L30.2206 99.6847C28.1562 97.6989 27.0011 95.041 27.0011 92.2763L27.0011 62.2504L27.0012 56.6204C27.0013 50.8124 31.9995 46.092 38.2191 46.0261L79.3446 45.5897Z" fill="#E0E036" fill-opacity="0.29"/>
<path d="M45.0002 93H322" stroke="#838383"/>
<defs>
<linearGradient id="paint0_linear_473_6034" x1="650" y1="280.368" x2="338.001" y2="278.745" gradientUnits="userSpaceOnUse">
<stop offset="0.364583"/>
<stop offset="0.817708" stop-color="#252504"/>
</linearGradient>
</defs>
</svg>
