<svg width="91" height="90" viewBox="0 0 91 90" fill="none" xmlns="http://www.w3.org/2000/svg">
<g filter="url(#filter0_d_506_5486)">
<rect x="22.0195" y="22" width="46.902" height="46" rx="6" fill="black"/>
</g>
<path fill-rule="evenodd" clip-rule="evenodd" d="M37.3211 49.5836V52.0533C37.3211 52.3808 37.4537 52.6949 37.6898 52.9265C37.926 53.1581 38.2462 53.2882 38.5801 53.2882H57.4664C57.8004 53.2882 58.1206 53.1581 58.3567 52.9265C58.5929 52.6949 58.7255 52.3808 58.7255 52.0533V42.1743C58.7255 41.8468 58.5929 41.5327 58.3567 41.3011C58.1206 41.0696 57.8004 40.9395 57.4664 40.9395H55.8989V43.2048C56.0714 43.4572 56.3047 43.664 56.5781 43.807C56.8515 43.9499 57.1566 44.0245 57.4664 44.0242V50.201C56.9674 50.2038 56.4898 50.4002 56.1379 50.7472C55.786 51.0943 55.5885 51.5639 55.5885 52.0533H40.4656C40.459 51.5667 40.2575 51.1021 39.9046 50.7599C39.5517 50.4177 39.0758 50.2254 38.5795 50.2245V49.5836H37.3211Z" fill="white"/>
<path d="M46.4558 42.1748C46.4558 42.8298 46.1905 43.458 45.7182 43.9212C45.246 44.3844 44.6055 44.6446 43.9376 44.6446C43.2697 44.6446 42.6292 44.3844 42.157 43.9212C41.6847 43.458 41.4194 42.8298 41.4194 42.1748C41.4194 41.5198 41.6847 40.8916 42.157 40.4285C42.6292 39.9653 43.2697 39.7051 43.9376 39.7051C44.6055 39.7051 45.246 39.9653 45.7182 40.4285C46.1905 40.8916 46.4558 41.5198 46.4558 42.1748Z" fill="white"/>
<path fill-rule="evenodd" clip-rule="evenodd" d="M34.4944 36C34.1605 36 33.8403 36.1301 33.6041 36.3617C33.368 36.5933 33.2354 36.9074 33.2354 37.2349V47.1139C33.2354 47.4414 33.368 47.7555 33.6041 47.987C33.8403 48.2186 34.1605 48.3487 34.4944 48.3487H53.3807C53.7147 48.3487 54.0349 48.2186 54.271 47.987C54.5072 47.7555 54.6398 47.4414 54.6398 47.1139V37.2349C54.6398 36.9074 54.5072 36.5933 54.271 36.3617C54.0349 36.1301 53.7147 36 53.3807 36H34.4944ZM36.3818 37.2349H51.4927C51.4932 37.7257 51.6924 38.1962 52.0464 38.543C52.4004 38.8899 52.8803 39.0847 53.3807 39.0847V45.2615C52.8816 45.264 52.4038 45.4603 52.0518 45.8074C51.6999 46.1546 51.5025 46.6243 51.5028 47.1139H36.3805C36.3743 46.6271 36.1729 46.1623 35.8199 45.8201C35.4669 45.4778 34.9908 45.2856 34.4944 45.285V39.0872C34.7424 39.0872 34.9879 39.0393 35.217 38.9462C35.4461 38.8531 35.6542 38.7166 35.8295 38.5446C36.0047 38.3726 36.1437 38.1684 36.2385 37.9436C36.3333 37.7189 36.382 37.4781 36.3818 37.2349Z" fill="white"/>
<defs>
<filter id="filter0_d_506_5486" x="0.0195312" y="0" width="90.902" height="90" filterUnits="userSpaceOnUse" color-interpolation-filters="sRGB">
<feFlood flood-opacity="0" result="BackgroundImageFix"/>
<feColorMatrix in="SourceAlpha" type="matrix" values="0 0 0 0 0 0 0 0 0 0 0 0 0 0 0 0 0 0 127 0" result="hardAlpha"/>
<feMorphology radius="3" operator="erode" in="SourceAlpha" result="effect1_dropShadow_506_5486"/>
<feOffset/>
<feGaussianBlur stdDeviation="12.5"/>
<feComposite in2="hardAlpha" operator="out"/>
<feColorMatrix type="matrix" values="0 0 0 0 0 0 0 0 0 0 0 0 0 0 0 0 0 0 0.11 0"/>
<feBlend mode="normal" in2="BackgroundImageFix" result="effect1_dropShadow_506_5486"/>
<feBlend mode="normal" in="SourceGraphic" in2="effect1_dropShadow_506_5486" result="shape"/>
</filter>
</defs>
</svg>
