<svg width="91" height="90" viewBox="0 0 91 90" fill="none" xmlns="http://www.w3.org/2000/svg">
<g filter="url(#filter0_d_506_5489)">
<rect x="22.0195" y="22" width="46.902" height="46" rx="6" fill="#E49721"/>
</g>
<path d="M43.0509 55L42.6248 51.64C42.394 51.5525 42.1764 51.4475 41.9718 51.325C41.7673 51.2025 41.5677 51.0712 41.3732 50.9312L38.204 52.2437L35.2745 47.2562L38.0176 45.2087C37.9998 45.0862 37.991 44.9679 37.991 44.8538V44.1461C37.991 44.032 37.9998 43.9137 38.0176 43.7912L35.2745 41.7437L38.204 36.7562L41.3732 38.0687C41.5685 37.9287 41.7726 37.7975 41.9857 37.675C42.1987 37.5525 42.4118 37.4475 42.6248 37.36L43.0509 34H48.9099L49.336 37.36C49.5668 37.4475 49.7845 37.5525 49.989 37.675C50.1935 37.7975 50.3931 37.9287 50.5877 38.0687L53.7568 36.7562L56.6863 41.7437L53.9433 43.7912C53.961 43.9137 53.9699 44.032 53.9699 44.1461V44.8538C53.9699 44.9679 53.9521 45.0862 53.9166 45.2087L56.6597 47.2562L53.7302 52.2437L50.5877 50.9312C50.3924 51.0712 50.1882 51.2025 49.9752 51.325C49.7621 51.4475 49.549 51.5525 49.336 51.64L48.9099 55H43.0509ZM46.0337 48.175C47.0634 48.175 47.9423 47.8162 48.6702 47.0987C49.3981 46.3812 49.7621 45.515 49.7621 44.5C49.7621 43.485 49.3981 42.6187 48.6702 41.9012C47.9423 41.1837 47.0634 40.825 46.0337 40.825C44.9862 40.825 44.1027 41.1837 43.3833 41.9012C42.6639 42.6187 42.3046 43.485 42.3053 44.5C42.3053 45.515 42.6646 46.3812 43.3833 47.0987C44.102 47.8162 44.9855 48.175 46.0337 48.175Z" fill="white"/>
<defs>
<filter id="filter0_d_506_5489" x="0.0195312" y="0" width="90.902" height="90" filterUnits="userSpaceOnUse" color-interpolation-filters="sRGB">
<feFlood flood-opacity="0" result="BackgroundImageFix"/>
<feColorMatrix in="SourceAlpha" type="matrix" values="0 0 0 0 0 0 0 0 0 0 0 0 0 0 0 0 0 0 127 0" result="hardAlpha"/>
<feMorphology radius="3" operator="erode" in="SourceAlpha" result="effect1_dropShadow_506_5489"/>
<feOffset/>
<feGaussianBlur stdDeviation="12.5"/>
<feComposite in2="hardAlpha" operator="out"/>
<feColorMatrix type="matrix" values="0 0 0 0 0 0 0 0 0 0 0 0 0 0 0 0 0 0 0.11 0"/>
<feBlend mode="normal" in2="BackgroundImageFix" result="effect1_dropShadow_506_5489"/>
<feBlend mode="normal" in="SourceGraphic" in2="effect1_dropShadow_506_5489" result="shape"/>
</filter>
</defs>
</svg>
