<svg width="167" height="174" viewBox="0 0 167 174" fill="none" xmlns="http://www.w3.org/2000/svg">
<path d="M162.886 163.677C162.886 169.377 126.996 174 82.7292 174C38.4621 174 2.57214 169.377 2.57214 163.677C2.57214 157.978 38.4621 153.355 82.7292 153.355C126.996 153.355 162.886 157.978 162.886 163.677Z" fill="#EBEBEB"/>
<path d="M142.509 115.499C142.509 115.499 135.903 113.989 132.284 110.623C128.665 107.257 126.638 101.229 126.638 101.229C129.149 101.714 131.625 102.37 134.048 103.193C134.957 104.139 135.713 105.223 136.289 106.406C136.346 105.645 136.346 104.881 136.289 104.12C137.136 104.488 137.927 104.972 138.643 105.558C141.657 108.193 142.509 115.499 142.509 115.499Z" fill="#A3A30A"/>
<path d="M130.763 104.156C129.863 103.53 128.947 102.923 128.051 102.289C127.996 102.253 128.051 102.164 128.103 102.2C129.807 103.225 131.484 104.321 133.108 105.47C133.673 105.872 134.231 106.285 134.78 106.711L134.665 106.514C134.466 106.181 134.267 105.851 134.048 105.522C133.634 104.854 133.165 104.223 132.646 103.634C132.626 103.614 132.646 103.582 132.678 103.602C133.192 104.201 133.705 104.807 134.175 105.43C134.398 105.731 134.605 106.044 134.804 106.362C134.908 106.53 135.007 106.695 135.099 106.868L135.198 107.036C136.054 107.715 136.887 108.422 137.679 109.165C138.17 109.626 138.644 110.102 139.1 110.595C138.842 109.792 138.619 108.988 138.324 108.185C138.324 108.157 138.36 108.145 138.368 108.185C138.654 109.016 138.969 109.856 139.192 110.711C139.698 111.262 140.183 111.832 140.637 112.431L140.613 112.322C140.538 112.005 140.462 111.691 140.378 111.382C140.219 110.78 140.04 110.177 139.841 109.587C139.46 108.36 138.858 107.215 138.065 106.209C138.045 106.185 138.065 106.153 138.097 106.177C139.335 107.734 140.201 109.558 140.629 111.507C140.701 111.788 140.765 112.073 140.828 112.358C140.864 112.511 140.904 112.663 140.928 112.82C141.127 113.093 141.326 113.366 141.513 113.648C142.635 115.386 143.569 117.24 144.3 119.178C145.131 121.352 145.843 123.57 146.434 125.822C146.432 125.829 146.427 125.835 146.421 125.839C146.415 125.844 146.408 125.846 146.401 125.846C146.393 125.846 146.386 125.844 146.38 125.839C146.374 125.835 146.369 125.829 146.367 125.822C145.073 121.922 143.755 117.965 141.541 114.483C141.074 113.747 140.571 113.035 140.032 112.35C138.938 112.279 137.857 112.063 136.819 111.708C135.686 111.32 134.606 110.793 133.602 110.137C133.03 109.747 132.478 109.328 131.949 108.88C131.946 108.879 131.943 108.876 131.94 108.874C131.938 108.871 131.936 108.868 131.935 108.864C131.934 108.86 131.933 108.856 131.934 108.853C131.935 108.849 131.936 108.845 131.939 108.842C131.941 108.839 131.944 108.837 131.947 108.835C131.951 108.834 131.955 108.833 131.958 108.833C131.962 108.833 131.966 108.834 131.969 108.836C131.972 108.838 131.975 108.841 131.977 108.844C132.9 109.595 133.919 110.218 135.007 110.695C136.075 111.19 137.192 111.567 138.34 111.82C138.826 111.928 139.323 112.009 139.817 112.077C139.206 111.318 138.556 110.591 137.87 109.9C137.647 109.675 137.416 109.458 137.185 109.241C136.415 108.698 135.599 108.226 134.745 107.832C133.662 107.301 132.594 106.743 131.523 106.193C130.918 105.884 130.329 105.566 129.712 105.265C129.684 105.265 129.712 105.217 129.736 105.229C130.819 105.759 131.922 106.253 133.017 106.759C134.111 107.265 135.095 107.715 136.082 108.273L136.21 108.35C135.314 107.546 134.386 106.815 133.423 106.092C132.555 105.442 131.667 104.799 130.763 104.156Z" fill="#263238"/>
<path d="M131.141 107.611C131.679 107.848 132.224 108.057 132.758 108.31C133.291 108.563 133.821 108.868 134.35 109.177C134.353 109.179 134.355 109.18 134.356 109.183C134.358 109.185 134.359 109.187 134.36 109.19C134.361 109.192 134.361 109.195 134.361 109.198C134.36 109.2 134.36 109.203 134.358 109.205C134.357 109.208 134.355 109.21 134.353 109.212C134.351 109.213 134.349 109.215 134.346 109.215C134.343 109.216 134.341 109.216 134.338 109.216C134.335 109.216 134.333 109.215 134.33 109.213C133.805 108.96 133.271 108.723 132.738 108.458C132.204 108.193 131.675 107.896 131.125 107.655C131.101 107.611 131.113 107.583 131.141 107.611Z" fill="#263238"/>
<path d="M163.953 81.9053C162.727 83.4919 162.03 85.4294 161.963 87.44C161.943 88.0385 162.034 88.8739 162.106 89.85C160.457 90.8153 158.995 92.0756 157.794 93.5693C159.112 92.7962 160.627 92.4303 162.15 92.5169C162.116 93.1917 162.032 93.863 161.899 94.5252C160.943 94.5281 159.996 94.7177 159.112 95.0835C159.979 95.0743 160.838 95.2466 161.636 95.5896C160.442 99.3691 156.962 103.253 147.302 104.9C146.279 100.264 146.884 95.4144 149.014 91.1794C151.917 85.4237 163.953 81.9053 163.953 81.9053Z" fill="#A3A30A"/>
<path d="M143.966 121.062C144.133 119.456 144.341 117.849 144.591 116.242C145.08 113.03 145.73 109.845 146.538 106.699C146.918 105.223 147.384 103.77 147.935 102.349C147.908 102.091 147.896 101.83 147.9 101.57C147.9 101.257 147.9 100.944 147.9 100.63C147.9 100.008 147.935 99.3851 147.987 98.7626C148.085 97.5285 148.284 96.3047 148.581 95.1035C148.76 94.4087 148.979 93.7258 149.166 93.039C149.168 93.0347 149.171 93.0311 149.175 93.0285C149.179 93.0259 149.183 93.0246 149.188 93.0246C149.192 93.0246 149.197 93.0259 149.201 93.0285C149.205 93.0311 149.208 93.0347 149.21 93.039C148.887 94.2378 148.648 95.4578 148.493 96.69C148.322 97.9032 148.214 99.1245 148.17 100.349C148.17 100.682 148.151 101.02 148.151 101.353C148.151 101.498 148.151 101.642 148.151 101.783C148.626 100.619 149.17 99.4842 149.779 98.385C150.761 96.6425 151.867 94.974 153.088 93.3925C153.09 93.2076 153.117 93.0239 153.167 92.8462C153.211 92.6293 153.259 92.4124 153.307 92.1915C153.406 91.7497 153.518 91.3039 153.637 90.8661C153.876 89.9824 154.195 89.1269 154.469 88.2553C154.471 88.251 154.474 88.2474 154.478 88.2448C154.482 88.2422 154.487 88.2409 154.491 88.2409C154.496 88.2409 154.5 88.2422 154.504 88.2448C154.508 88.2474 154.511 88.251 154.513 88.2553C154.258 89.1189 154.087 90.0146 153.892 90.8942C153.792 91.328 153.701 91.7618 153.605 92.1996C153.557 92.4165 153.51 92.6334 153.466 92.8502C153.466 92.8502 153.466 92.8864 153.466 92.9025C153.856 92.4044 154.254 91.9144 154.66 91.4324C156.504 89.2474 158.526 87.2311 160.565 85.2349C160.816 84.9859 161.071 84.7489 161.326 84.5039C161.326 84.5039 161.377 84.5039 161.357 84.5401C159.41 86.5885 157.495 88.657 155.68 90.8259C155.246 91.344 154.824 91.8662 154.406 92.3924L155.066 91.9505C155.628 91.581 156.197 91.2195 156.783 90.8902C157.368 90.5608 157.977 90.2315 158.562 89.9302C159.148 89.629 159.844 89.3679 160.446 89.0185C160.469 89.0185 160.493 89.0466 160.466 89.0586C159.855 89.343 159.265 89.6719 158.702 90.0427C158.112 90.3962 157.527 90.7496 156.95 91.1191C156.372 91.4886 155.811 91.8421 155.246 92.2116C154.776 92.5209 154.314 92.8583 153.824 93.1394C152.704 94.5922 151.67 96.1104 150.727 97.6861C150.144 98.6796 149.613 99.7025 149.134 100.751L149.48 100.598L150.368 100.196C150.934 99.9434 151.507 99.6944 152.076 99.4454C153.159 98.9674 154.262 98.5336 155.325 98.0115C155.925 97.7264 156.504 97.4017 157.061 97.0395C157.085 97.0395 157.105 97.0395 157.081 97.0796C155.09 98.4573 152.877 99.4253 150.687 100.405L149.735 100.831C149.472 100.948 149.21 101.076 148.939 101.181C148.289 102.646 147.742 104.156 147.302 105.699C146.439 108.804 145.737 111.951 145.2 115.13C144.647 118.315 144.272 121.52 143.982 124.741C143.946 125.143 143.91 125.545 143.862 125.946C143.857 125.976 143.842 126.003 143.819 126.022C143.796 126.042 143.767 126.052 143.737 126.052C143.707 126.052 143.678 126.042 143.655 126.022C143.632 126.003 143.617 125.976 143.612 125.946C143.647 124.324 143.795 122.689 143.966 121.062Z" fill="#263238"/>
<path d="M149.847 94.1355C150.022 93.1434 150.285 92.1754 150.547 91.2034C150.547 91.1753 150.599 91.2034 150.591 91.2034C150.348 92.1553 150.173 93.1273 149.994 94.0913C149.815 95.0553 149.655 96.0674 149.516 97.0595C149.516 97.0595 149.488 97.0796 149.488 97.0595C149.553 96.0788 149.672 95.1025 149.847 94.1355Z" fill="#263238"/>
<path d="M153.999 96.8225C154.672 96.3732 155.375 95.9707 156.102 95.6175C156.452 95.4368 156.81 95.2601 157.165 95.0874C157.519 94.9146 157.917 94.758 158.284 94.5732C158.308 94.5732 158.327 94.5973 158.284 94.6094C157.929 94.7901 157.595 95.011 157.248 95.1958L156.173 95.7902C155.469 96.1718 154.772 96.5936 154.031 96.9068C154.023 96.9045 154.015 96.9001 154.009 96.8942C154.002 96.8883 153.997 96.8809 153.994 96.8727C153.991 96.8645 153.99 96.8557 153.991 96.847C153.992 96.8383 153.995 96.8299 153.999 96.8225Z" fill="#263238"/>
<path opacity="0.1" d="M142.389 103.956C142.389 103.956 136.277 102.482 133.47 98.3326C130.791 94.3844 129.923 87.6486 129.855 87.0542C129.963 87.6004 131.225 93.4806 135.386 96.2279C138.575 98.3406 141.657 100.068 142.389 103.956Z" fill="#263238"/>
<path d="M142.389 103.956C142.389 103.956 136.277 102.482 133.47 98.3327C130.791 94.3845 129.923 87.6488 129.855 87.0543C129.853 87.041 129.853 87.0275 129.855 87.0142C129.855 87.0142 132.786 91.2195 135.867 92.2919C138.949 93.3643 143.273 97.0836 142.389 103.956Z" fill="#A3A30A"/>
<path d="M130.93 89.344C131.479 90.4775 132.111 91.5677 132.821 92.6055C133.534 93.5901 134.379 94.469 135.334 95.2162C136.166 95.883 137.042 96.4854 137.882 97.1361V97.104C137.723 96.871 137.556 96.6381 137.38 96.4171C137.03 95.9633 136.648 95.5375 136.262 95.1158C135.505 94.2844 134.729 93.469 134.048 92.5693C133.668 92.0687 133.34 91.5303 133.068 90.9627C133.068 90.9346 133.096 90.9225 133.108 90.9627C134.1 93.0473 136.082 94.3808 137.488 96.14C137.688 96.3901 137.875 96.6502 138.049 96.9192C138.19 97.1145 138.308 97.3246 138.404 97.5458C139.178 98.1722 139.878 98.8865 140.49 99.6745C140.437 99.2674 140.354 98.8646 140.243 98.4696C140.102 97.9202 139.883 97.394 139.594 96.9072C139.594 96.8831 139.618 96.855 139.634 96.8831C139.929 97.371 140.168 97.8911 140.347 98.4334C140.476 98.8654 140.551 99.3121 140.57 99.7629C140.872 100.177 141.149 100.611 141.398 101.06C141.37 100.928 141.346 100.795 141.322 100.659C141.199 100.044 141.067 99.4295 140.924 98.823C140.635 97.5885 140.139 96.4132 139.455 95.3488C139.435 95.3247 139.455 95.3006 139.491 95.3247C140.192 96.3729 140.74 97.5172 141.119 98.7226C141.314 99.3291 141.469 99.9276 141.609 100.566C141.677 100.867 141.736 101.173 141.792 101.478C141.824 101.635 141.856 101.799 141.884 101.96C142.489 103.303 142.961 104.704 143.293 106.141C143.892 108.709 144.327 111.313 144.595 113.937C144.911 116.685 145.052 119.45 145.017 122.215C145.017 122.565 144.989 122.91 144.973 123.256C144.973 123.344 144.834 123.36 144.83 123.256C144.77 121.886 144.734 120.516 144.655 119.151C144.575 117.785 144.456 116.419 144.312 115.054C144.033 112.375 143.608 109.713 143.038 107.081C142.541 104.828 141.899 102.558 140.677 100.582C140.07 99.5989 139.327 98.7077 138.471 97.9354C137.615 97.1602 136.68 96.4814 135.776 95.7625C134.86 95.0593 134.029 94.2505 133.299 93.3525C132.553 92.3565 131.903 91.2914 131.356 90.1714L130.918 89.336C130.878 89.344 130.906 89.3199 130.93 89.344Z" fill="#263238"/>
<path d="M131.985 90.2515C132.387 91.0834 132.842 91.8884 133.347 92.6614C133.347 92.6614 133.347 92.6975 133.319 92.6614C132.794 91.8983 132.333 91.0922 131.941 90.2515C131.93 90.2394 131.973 90.2233 131.985 90.2515Z" fill="#263238"/>
<path d="M164.821 101.229C164.821 101.229 164.921 109.993 159.725 112.519C154.529 115.045 151.762 112.945 148.218 113.792C148.354 113.583 150.874 109.928 154.879 108.924C159.004 107.884 163.555 104.88 164.821 101.229Z" fill="#A3A30A"/>
<path opacity="0.1" d="M164.821 101.229C164.821 101.229 164.921 109.993 159.725 112.519C154.529 115.045 151.762 112.945 148.218 113.792C150.083 112.894 152.078 112.299 154.127 112.029C157.404 111.627 163.659 109.478 164.821 101.229Z" fill="black"/>
<path d="M147.876 113.949C148.493 113.379 149.189 112.903 149.942 112.535C150.05 112.483 150.165 112.439 150.281 112.391C150.333 112.32 150.391 112.253 150.452 112.19C150.611 112.025 150.77 111.869 150.942 111.72C151.268 111.437 151.619 111.183 151.989 110.961C152.849 110.451 153.792 110.093 154.672 109.619C154.696 109.619 154.72 109.643 154.692 109.66C154.258 109.884 153.836 110.138 153.414 110.387C152.992 110.636 152.582 110.86 152.18 111.122C151.82 111.356 151.477 111.615 151.153 111.897C151.061 111.977 150.973 112.065 150.886 112.154C151.46 111.959 152.047 111.802 152.642 111.684C153.593 111.491 154.553 111.355 155.504 111.15C155.97 111.049 156.43 110.925 156.882 110.776C157.312 110.423 157.742 110.077 158.152 109.696C158.645 109.239 159.095 108.736 159.494 108.194C159.494 108.173 159.55 108.194 159.53 108.218C158.9 109.078 158.188 109.873 157.404 110.591C157.627 110.503 157.846 110.411 158.065 110.31C159.85 109.504 161.381 108.219 162.492 106.595C162.492 106.571 162.548 106.595 162.532 106.619C161.587 108.012 160.367 109.194 158.948 110.089C158.239 110.537 157.48 110.899 156.687 111.17C155.766 111.458 154.827 111.682 153.876 111.841C152.944 111.993 152.025 112.213 151.125 112.499C150.296 112.783 149.517 113.196 148.815 113.724C147.493 114.761 146.427 116.093 145.702 117.616C144.771 119.644 144.19 121.818 143.986 124.043C143.986 124.135 143.834 124.135 143.838 124.043C144.081 120.339 145.061 116.504 147.876 113.949Z" fill="#263238"/>
<path d="M153.904 111.089C154.175 110.681 154.541 110.345 154.971 110.113C155.464 109.854 155.896 109.493 156.241 109.053C156.241 109.029 156.297 109.053 156.277 109.077C155.965 109.478 155.587 109.82 155.158 110.089C154.687 110.343 154.271 110.69 153.936 111.109C153.92 111.129 153.888 111.109 153.904 111.089Z" fill="#263238"/>
<path d="M151.145 120.416L150.91 125.235L150.185 139.956H139.287L138.563 125.235L138.328 120.416H151.145Z" fill="#37474F"/>
<path d="M151.145 120.416L150.91 125.235H138.563L138.328 120.416H151.145Z" fill="#263238"/>
<path d="M151.909 118.403H137.563V123.002H151.909V118.403Z" fill="#37474F"/>
<path d="M0 139.956L20.6803 139.859L41.3646 139.823L82.7292 139.755L124.094 139.823L144.778 139.859L165.458 139.956L144.778 140.056L124.094 140.092L82.7292 140.157L41.3646 140.088L20.6803 140.056L0 139.956Z" fill="#263238"/>
<path d="M132.587 150.692V10.7042C132.587 7.84481 130.289 5.52686 127.454 5.52686L38.0082 5.52686C35.1737 5.52686 32.876 7.84481 32.876 10.7042L32.876 150.692C32.876 153.551 35.1737 155.869 38.0082 155.869H127.454C130.289 155.869 132.587 153.551 132.587 150.692Z" fill="#263238"/>
<path d="M128.378 16.0503H37.1959V145.439H128.378V16.0503Z" fill="white"/>
<path d="M93.575 11.9134V11.3551C93.575 11.0778 93.3521 10.853 93.0773 10.853L72.3731 10.853C72.0982 10.853 71.8754 11.0778 71.8754 11.3551V11.9134C71.8754 12.1907 72.0982 12.4155 72.3731 12.4155L93.0773 12.4155C93.3521 12.4155 93.575 12.1907 93.575 11.9134Z" fill="#37474F"/>
<path d="M82.7292 153.355C84.2794 153.355 85.5362 152.087 85.5362 150.524C85.5362 148.96 84.2794 147.692 82.7292 147.692C81.1789 147.692 79.9221 148.96 79.9221 150.524C79.9221 152.087 81.1789 153.355 82.7292 153.355Z" fill="#37474F"/>
<path d="M114.331 33.8193H51.2469V34.715H114.331V33.8193Z" fill="#EBEBEB"/>
<path d="M114.331 36.5986H51.2469V37.4943H114.331V36.5986Z" fill="#EBEBEB"/>
<path d="M114.331 121.239H51.2469V122.134H114.331V121.239Z" fill="#EBEBEB"/>
<path d="M114.331 124.019H51.2469V124.914H114.331V124.019Z" fill="#EBEBEB"/>
<path d="M66.5838 133.662C68.1935 133.662 69.4983 132.346 69.4983 130.722C69.4983 129.099 68.1935 127.782 66.5838 127.782C64.9742 127.782 63.6693 129.099 63.6693 130.722C63.6693 132.346 64.9742 133.662 66.5838 133.662Z" fill="#A3A30A"/>
<path d="M66.6317 132.437L64.8957 130.666L65.481 130.084L66.4923 131.12L68.6026 127.786L69.2914 128.232L66.6317 132.437Z" fill="white"/>
<path d="M73.8821 130.698C73.884 130.487 73.9217 130.277 73.9936 130.079C74.0674 129.877 74.1796 129.691 74.3241 129.533C74.4776 129.358 74.6673 129.218 74.8798 129.125C75.0923 129.031 75.3225 128.985 75.5544 128.991C75.8337 128.986 76.1091 129.058 76.3507 129.2C76.567 129.326 76.7425 129.513 76.8563 129.738L76.3586 130.103C76.3189 130.013 76.2637 129.93 76.1954 129.858C76.1353 129.797 76.0669 129.744 75.9923 129.702C75.9191 129.664 75.8415 129.636 75.7614 129.617C75.6841 129.601 75.6054 129.593 75.5265 129.593C75.377 129.589 75.229 129.624 75.0965 129.694C74.9766 129.757 74.8719 129.846 74.7899 129.955C74.7079 130.065 74.6458 130.188 74.6067 130.32C74.5166 130.594 74.5166 130.89 74.6067 131.164C74.651 131.298 74.7199 131.424 74.8098 131.533C74.8976 131.638 75.0044 131.725 75.1243 131.79C75.2476 131.854 75.3841 131.887 75.5225 131.887C75.6031 131.885 75.6833 131.874 75.7614 131.854C75.8437 131.837 75.9229 131.807 75.9963 131.766C76.072 131.722 76.1417 131.668 76.2034 131.605C76.2686 131.535 76.3211 131.453 76.3586 131.364L76.8962 131.678C76.8428 131.806 76.7642 131.922 76.6652 132.019C76.5653 132.118 76.4512 132.2 76.3268 132.264C76.0734 132.401 75.7902 132.473 75.5026 132.473C75.2722 132.475 75.0446 132.423 74.8377 132.32C74.6412 132.221 74.4655 132.085 74.3201 131.919C74.1752 131.753 74.0606 131.563 73.9816 131.356C73.906 131.146 73.8722 130.922 73.8821 130.698Z" fill="#A3A30A"/>
<path d="M78.7795 132.457C78.5455 132.461 78.3139 132.41 78.1026 132.309C77.707 132.116 77.4004 131.776 77.2466 131.361C77.1676 131.157 77.1271 130.941 77.1271 130.722C77.127 130.498 77.1703 130.275 77.2545 130.067C77.3355 129.863 77.4529 129.675 77.6009 129.513C77.7505 129.347 77.9302 129.21 78.1305 129.112C78.3395 129.017 78.5663 128.969 78.7954 128.971C79.0273 128.967 79.2568 129.019 79.4643 129.124C79.663 129.221 79.8403 129.358 79.9859 129.525C80.1387 129.694 80.2589 129.89 80.3402 130.104C80.4185 130.306 80.459 130.521 80.4597 130.738C80.4598 130.963 80.4165 131.185 80.3323 131.393C80.2542 131.597 80.1379 131.784 79.9899 131.943C79.8408 132.102 79.6622 132.231 79.4643 132.321C79.2493 132.418 79.0151 132.465 78.7795 132.457ZM77.796 130.722C77.7965 130.868 77.8193 131.013 77.8637 131.152C77.9056 131.284 77.9703 131.408 78.0548 131.517C78.1412 131.622 78.2466 131.709 78.3654 131.774C78.4953 131.839 78.6387 131.871 78.7834 131.867C78.9311 131.87 79.0772 131.837 79.2095 131.77C79.3292 131.705 79.4348 131.616 79.52 131.509C79.6038 131.398 79.6684 131.273 79.7112 131.14C79.7505 131.01 79.772 130.874 79.7749 130.738C79.7753 130.592 79.7511 130.447 79.7032 130.308C79.6608 130.176 79.5947 130.052 79.5081 129.943C79.4256 129.835 79.3192 129.749 79.1975 129.69C79.0738 129.628 78.9374 129.596 78.7994 129.598C78.653 129.595 78.5082 129.628 78.3773 129.694C78.2547 129.755 78.1482 129.844 78.0668 129.955C77.9823 130.065 77.9176 130.188 77.8756 130.321C77.8291 130.45 77.8022 130.585 77.796 130.722Z" fill="#A3A30A"/>
<path d="M81.6024 130.24V132.433H80.9454V129.011H81.4551L83.2229 131.256V129.015H83.8838V132.433H83.3463L81.6024 130.24Z" fill="#A3A30A"/>
<path d="M84.5885 132.433V129.011H86.87V129.594H85.2495V130.477H86.5952V131.015H85.2495V132.433H84.5885Z" fill="#A3A30A"/>
<path d="M87.3319 132.433V129.011H87.9928V132.433H87.3319Z" fill="#A3A30A"/>
<path d="M88.7015 132.433V129.011H90.2026C90.3526 129.01 90.501 129.043 90.6366 129.108C90.7649 129.174 90.8808 129.262 90.979 129.369C91.0726 129.478 91.1479 129.601 91.202 129.734C91.2536 129.862 91.2807 129.998 91.2816 130.136C91.2852 130.35 91.2286 130.56 91.1183 130.742C91.0163 130.921 90.86 131.062 90.6724 131.144L91.4448 132.433H90.6923L89.9995 131.285H89.3505V132.433H88.7015ZM89.3625 130.702H90.1906C90.2494 130.704 90.3074 130.688 90.3579 130.658C90.4107 130.629 90.4569 130.59 90.4932 130.542C90.5346 130.489 90.5656 130.429 90.5848 130.365C90.6089 130.295 90.6211 130.222 90.6206 130.148C90.6201 130.073 90.6066 129.998 90.5808 129.927C90.5574 129.862 90.5223 129.802 90.4773 129.75C90.4357 129.703 90.3858 129.663 90.33 129.634C90.2769 129.607 90.2182 129.593 90.1588 129.594H89.3625V130.702Z" fill="#A3A30A"/>
<path d="M94.6421 132.433V130.168L93.7701 131.855H93.4117L92.5358 130.168V132.433H91.8868V129.011H92.5955L93.5989 130.959L94.6102 129.011H95.3149V132.433H94.6421Z" fill="#A3A30A"/>
<path d="M98.3649 131.851V132.433H96.0078V129.011H98.3211V129.594H96.6647V130.397H98.0941V130.939H96.6647V131.831L98.3649 131.851Z" fill="#A3A30A"/>
<path d="M98.8825 132.433V129.011H100.113C100.362 129.005 100.611 129.052 100.841 129.148C101.041 129.229 101.221 129.354 101.367 129.513C101.508 129.67 101.615 129.855 101.682 130.056C101.827 130.5 101.827 130.981 101.682 131.425C101.609 131.626 101.494 131.809 101.345 131.962C101.196 132.114 101.016 132.233 100.818 132.309C100.597 132.395 100.361 132.437 100.125 132.433H98.8825ZM101.12 130.718C101.123 130.564 101.1 130.411 101.052 130.264C101.013 130.133 100.947 130.011 100.857 129.907C100.771 129.806 100.664 129.727 100.543 129.674C100.406 129.619 100.26 129.592 100.113 129.594H99.5395V131.851H100.113C100.262 131.852 100.41 131.822 100.547 131.763C100.668 131.708 100.775 131.627 100.861 131.526C100.948 131.419 101.013 131.296 101.052 131.164C101.1 131.021 101.123 130.87 101.12 130.718Z" fill="#A3A30A"/>
<path d="M107.67 115.001H57.7885V72.4338L82.7251 56.4561L107.67 72.4338V115.001Z" fill="#A3A30A"/>
<path opacity="0.2" d="M107.67 115.001H57.7885V72.4338L82.7251 56.4561L107.67 72.4338V115.001Z" fill="black"/>
<path d="M104.855 54.4316H60.5995V111.743H104.855V54.4316Z" fill="#EBEBEB"/>
<path d="M80.0336 88.7208L69.9005 78.3743L73.3047 74.9803L79.2253 81.0252L91.5204 61.5771L95.5578 64.1718L80.0336 88.7208Z" fill="#A3A30A"/>
<path d="M107.67 83.1099V115.001H57.7885V83.1099C59.9306 84.3148 62.0368 85.6162 64.159 86.8693C66.2812 88.1225 68.3835 89.4238 70.4818 90.7252C72.8189 92.1591 75.1561 93.6211 77.4853 95.0912L77.561 95.047C77.5371 95.047 77.5212 95.0871 77.5013 95.0992C79.2425 96.1837 80.9852 97.2748 82.7291 98.3727C84.465 97.2681 86.213 96.1555 87.9569 95.0671C87.937 95.0671 87.9211 95.0309 87.8972 95.0148C87.9206 95.0313 87.9461 95.0448 87.9728 95.055C90.3007 93.5903 92.6352 92.1337 94.9764 90.685C97.076 89.3917 99.1809 88.1091 101.291 86.8372C103.433 85.5961 105.528 84.3148 107.67 83.1099Z" fill="#A3A30A"/>
<g opacity="0.2">
<path opacity="0.2" d="M107.67 83.1099C105.655 84.5357 103.604 85.9214 101.574 87.3111C99.5433 88.7009 97.4768 90.0585 95.4144 91.4201C93.2643 92.8419 91.1103 94.2504 88.9523 95.6454L88.7572 95.782L83.0118 99.4772L82.7251 99.6499L82.4464 99.4772L76.7089 95.774L76.5059 95.6454C74.3426 94.2477 72.1859 92.8366 70.0358 91.412C67.9813 90.0585 65.9308 88.6848 63.8843 87.3111C61.8378 85.9375 59.8032 84.5156 57.7885 83.1099C59.9306 84.3148 62.0368 85.6162 64.159 86.8693C66.2812 88.1225 68.3835 89.4238 70.4818 90.7252C72.8189 92.1591 75.1561 93.6211 77.4853 95.0912C79.2372 96.181 80.9852 97.2748 82.7291 98.3727C84.465 97.2681 86.213 96.1555 87.9569 95.0671C90.2848 93.6024 92.6193 92.1457 94.9605 90.6971C97.0601 89.4038 99.165 88.1211 101.275 86.8492C103.433 85.5961 105.528 84.3148 107.67 83.1099Z" fill="black"/>
<path opacity="0.2" d="M77.5527 95.0269C77.5288 95.0269 77.5129 95.067 77.493 95.0791L76.6967 95.7538C75.4464 96.8182 74.1644 97.8384 72.8624 98.8305C71.2698 100.035 69.6493 101.24 68.0168 102.389C66.3844 103.538 64.728 104.662 63.0399 105.751C61.3517 106.839 59.6555 107.904 57.8957 108.88C59.4087 107.542 60.9814 106.293 62.57 105.08C64.1587 103.867 65.7911 102.67 67.4156 101.518C69.0401 100.365 70.7123 99.2362 72.3966 98.1477C73.7383 97.2801 75.104 96.4246 76.4936 95.6253C76.8161 95.4365 77.1386 95.2558 77.4691 95.071L77.5527 95.0269Z" fill="black"/>
<path opacity="0.2" d="M107.55 108.88C105.79 107.904 104.082 106.839 102.406 105.751C100.73 104.662 99.0536 103.53 97.4211 102.389C95.7887 101.248 94.1642 100.052 92.5755 98.8305C91.2815 97.8384 89.9995 96.8222 88.7572 95.7619L87.9609 95.0791C87.941 95.0791 87.9251 95.0429 87.9012 95.0269C87.9246 95.0433 87.9501 95.0568 87.9768 95.067C88.3073 95.2558 88.6298 95.4365 88.9523 95.6253C90.3419 96.4286 91.6996 97.2801 93.0494 98.1477C94.7336 99.2362 96.3819 100.369 98.0223 101.518C99.6627 102.666 101.279 103.855 102.868 105.08C104.457 106.305 106.037 107.542 107.55 108.88Z" fill="black"/>
</g>
<path d="M61.3879 51.7006C61.1225 49.4929 61.1225 47.2609 61.3879 45.0532C61.6534 47.2609 61.6534 49.4929 61.3879 51.7006Z" fill="#263238"/>
<path d="M58.5849 52.7569C57.7122 52.0777 56.8861 51.3397 56.1123 50.5479C55.3264 49.7696 54.5947 48.9375 53.9224 48.0576C55.6579 49.4296 57.2233 51.0074 58.5849 52.7569Z" fill="#263238"/>
<path d="M57.3466 55.5002C56.2535 55.6431 55.152 55.7102 54.0498 55.7011C52.949 55.7135 51.8487 55.6477 50.7571 55.5043C51.8486 55.3594 52.9489 55.2923 54.0498 55.3034C55.1519 55.2929 56.2534 55.3587 57.3466 55.5002Z" fill="#263238"/>
<path d="M58.3937 58.3238C57.0322 60.0732 55.4682 61.6522 53.7353 63.0272C55.0937 61.2739 56.658 59.6932 58.3937 58.3198V58.3238Z" fill="#263238"/>
<path d="M103.772 51.7006C103.633 50.5976 103.568 49.4866 103.577 48.3749C103.569 47.2643 103.637 46.1544 103.78 45.0532C104.045 47.2609 104.045 49.4929 103.78 51.7006H103.772Z" fill="#263238"/>
<path d="M106.575 52.7569C107.936 51.0074 109.502 49.4296 111.237 48.0576C110.565 48.9375 109.833 49.7696 109.047 50.5479C108.274 51.3397 107.447 52.0777 106.575 52.7569Z" fill="#263238"/>
<path d="M107.813 55.5003C108.906 55.3587 110.008 55.293 111.11 55.3035C112.211 55.2922 113.311 55.3593 114.403 55.5043C113.311 55.6479 112.211 55.7136 111.11 55.7011C110.008 55.7103 108.906 55.6432 107.813 55.5003Z" fill="#263238"/>
<path d="M106.766 58.3237C108.501 59.6959 110.066 61.2752 111.424 63.0271C110.553 62.3463 109.728 61.6069 108.956 60.814C108.17 60.0356 107.438 59.2035 106.766 58.3237Z" fill="#263238"/>
<path d="M50.5939 167.906C49.7339 168.188 25.2352 167.866 24.3155 167.256C23.9611 167.031 23.7979 163.428 23.7262 159.066V158.929C23.7262 158.034 23.6983 157.106 23.6944 156.17C23.6944 156.042 23.6944 155.913 23.6944 155.768L24.8888 142.948L41.277 143.112L39.6565 155.813V156.315L39.557 158.942V159.215C39.557 159.215 48.8818 163.569 49.8294 164.348C50.777 165.127 51.4499 167.633 50.5939 167.906Z" fill="#F7A9A0"/>
<path d="M50.5939 167.906C49.7339 168.188 25.2352 167.866 24.3155 167.256C23.9611 167.031 23.7979 163.428 23.7262 159.066V158.93C23.7262 158.034 23.6983 157.106 23.6944 156.17C23.6944 156.042 23.6944 155.913 23.6944 155.769L39.6525 155.813V156.315L39.553 158.942V159.215C39.553 159.215 48.8778 163.569 49.8254 164.348C50.7731 165.127 51.4499 167.633 50.5939 167.906Z" fill="#EBEBEB"/>
<path d="M50.6656 167.967C49.7976 168.248 25.076 168.011 24.1404 167.401C23.782 167.172 23.6068 163.537 23.5192 159.139L39.4455 159.247C39.4455 159.247 48.8699 163.609 49.8295 164.388C50.789 165.167 51.5296 167.682 50.6656 167.967Z" fill="#A3A30A"/>
<path d="M50.3192 166.967C46.1784 166.822 29.4518 166.642 25.3468 166.818C25.3149 166.818 25.3149 166.842 25.3468 166.846C29.4518 167.075 46.1744 167.12 50.3192 167.035C50.4068 167.031 50.4068 166.967 50.3192 166.967Z" fill="#263238"/>
<path d="M48.2567 163.476C47.7963 163.461 47.3377 163.541 46.9095 163.712C46.4813 163.884 46.0928 164.142 45.7682 164.472C45.182 165.064 44.8429 165.861 44.8206 166.697C44.8206 166.721 44.8684 166.721 44.8724 166.697C45.0204 165.871 45.4304 165.115 46.0407 164.544C46.6509 163.972 47.4286 163.616 48.2567 163.528C48.2609 163.53 48.2655 163.531 48.2701 163.53C48.2746 163.53 48.2789 163.528 48.2827 163.526C48.2865 163.523 48.2895 163.519 48.2917 163.515C48.2938 163.511 48.2949 163.507 48.2949 163.502C48.2949 163.498 48.2938 163.493 48.2917 163.489C48.2895 163.485 48.2865 163.482 48.2827 163.479C48.2789 163.476 48.2746 163.475 48.2701 163.474C48.2655 163.474 48.2609 163.474 48.2567 163.476Z" fill="#263238"/>
<path d="M41.062 159.681C39.4017 159.641 37.4786 160.211 36.4315 161.568C36.3917 161.625 36.4673 161.681 36.5151 161.653C37.9734 160.901 39.507 160.309 41.0899 159.886C41.1139 159.879 41.1346 159.863 41.1482 159.842C41.1618 159.821 41.1674 159.796 41.164 159.771C41.1607 159.746 41.1485 159.723 41.1297 159.707C41.111 159.69 41.087 159.681 41.062 159.681Z" fill="#263238"/>
<path d="M42.3361 160.195C40.6798 160.155 38.7527 160.729 37.7055 162.087C37.6657 162.139 37.7414 162.195 37.7891 162.171C39.2469 161.417 40.7806 160.823 42.364 160.4C42.3879 160.393 42.4086 160.377 42.4222 160.356C42.4358 160.335 42.4415 160.31 42.4381 160.285C42.4347 160.26 42.4225 160.237 42.4038 160.221C42.385 160.204 42.361 160.195 42.3361 160.195Z" fill="#263238"/>
<path d="M43.6142 160.709C41.9539 160.673 40.0308 161.243 38.9836 162.601C38.9438 162.653 39.0155 162.713 39.0673 162.685C40.5245 161.934 42.0567 161.342 43.6381 160.918C43.6605 160.909 43.6793 160.894 43.6918 160.873C43.7042 160.852 43.7095 160.828 43.7067 160.804C43.704 160.78 43.6934 160.758 43.6766 160.741C43.6599 160.723 43.6379 160.712 43.6142 160.709Z" fill="#263238"/>
<path d="M44.9042 161.227C43.2479 161.187 41.3208 161.761 40.2737 163.119C40.2338 163.171 40.3095 163.227 40.3573 163.203C41.8062 162.451 43.3305 161.858 44.9042 161.432C44.9277 161.427 44.9489 161.414 44.9641 161.396C44.9792 161.377 44.9876 161.354 44.9876 161.329C44.9876 161.305 44.9792 161.282 44.9641 161.263C44.9489 161.245 44.9277 161.232 44.9042 161.227Z" fill="#263238"/>
<path d="M26.4417 162.857C24.5783 162.857 24.5584 165.761 26.4417 165.773C28.325 165.785 28.3051 162.869 26.4417 162.857Z" fill="white"/>
<path d="M42.9135 155.23C42.0813 154.519 41.0142 155.198 40.4927 155.921C39.6098 157.18 39.0715 158.651 38.9319 160.187C38.9319 160.219 38.9558 160.235 38.9836 160.235C38.9896 160.266 39.0029 160.296 39.0225 160.321C39.042 160.346 39.0673 160.366 39.0961 160.38C39.1249 160.393 39.1565 160.399 39.1882 160.398C39.2199 160.396 39.2508 160.387 39.2783 160.371C40.4728 159.568 41.8384 158.837 42.7462 157.684C43.2718 157.013 43.6859 155.905 42.9135 155.23ZM40.843 158.769C40.2697 159.17 39.6764 159.572 39.119 160.002C39.3957 159.163 39.7146 158.338 40.0746 157.532C40.2559 157.144 40.4621 156.768 40.6917 156.407C41.058 155.857 42.6825 154.475 42.8458 156.299C42.9135 157.303 41.5119 158.275 40.8271 158.769H40.843Z" fill="#263238"/>
<path d="M34.799 160.765C36.2443 161.002 37.7374 160.605 39.1589 160.396C39.1895 160.388 39.218 160.373 39.2419 160.352C39.2659 160.331 39.2848 160.304 39.2971 160.275C39.3094 160.245 39.3148 160.213 39.313 160.181C39.3111 160.15 39.3019 160.118 39.2863 160.091C39.2913 160.086 39.2953 160.081 39.2981 160.075C39.3008 160.069 39.3023 160.063 39.3023 160.056C39.3023 160.05 39.3008 160.043 39.2981 160.038C39.2953 160.032 39.2913 160.026 39.2863 160.022C38.1646 158.983 36.7914 158.26 35.3047 157.926C34.4327 157.745 33.1945 157.97 33.0551 159.062C32.9157 160.095 33.9589 160.629 34.799 160.765ZM33.8076 159.826C32.7007 158.38 34.8349 158.283 35.4719 158.44C35.8787 158.546 36.2778 158.68 36.6664 158.841C37.4866 159.171 38.259 159.609 39.0275 160.014C38.3227 160.075 37.6299 160.195 36.9252 160.279C36.101 160.368 34.4208 160.601 33.8076 159.826Z" fill="#263238"/>
<path opacity="0.1" d="M36.6624 168.007C30.5188 167.899 24.5903 167.694 24.1404 167.401C23.782 167.172 23.6068 163.537 23.5192 159.139H25.7887C28.2971 161.211 33.6046 165.521 36.6624 168.007Z" fill="black"/>
<path d="M40.6041 159.022H22.9617C22.9617 159.022 26.5133 117.455 26.3739 116.728C26.1987 115.796 25.1556 111.591 23.77 106.092C23.336 104.373 22.8662 102.53 22.3804 100.618C21.0625 95.4445 19.5933 89.7933 18.351 84.8731C16.4558 77.5067 14.9747 71.7832 14.9747 71.7832H29.9255C29.9255 71.7832 31.6694 77.3541 33.8672 84.608C37.4507 96.3884 42.2285 112.607 42.6984 116.551C43.4628 122.91 40.6041 159.022 40.6041 159.022Z" fill="#37474F"/>
<path d="M39.8237 155.977C37.1282 155.921 37.9006 155.901 35.2051 155.873C33.8872 155.873 25.2233 155.785 23.989 155.989C23.9816 155.989 23.9745 155.992 23.9693 155.998C23.9641 156.003 23.9612 156.01 23.9612 156.018C23.9612 156.025 23.9641 156.032 23.9693 156.037C23.9745 156.043 23.9816 156.046 23.989 156.046C25.2233 156.251 33.8872 156.174 35.2051 156.162C37.9006 156.138 37.1282 156.114 39.8237 156.058C39.8343 156.058 39.8444 156.053 39.8519 156.046C39.8594 156.038 39.8636 156.028 39.8636 156.018C39.8636 156.007 39.8594 155.997 39.8519 155.989C39.8444 155.982 39.8343 155.977 39.8237 155.977Z" fill="#263238"/>
<path d="M29.6947 114.178C29.1173 111.607 28.2493 109.085 27.4968 106.546C25.9679 101.419 24.4297 96.2908 22.8822 91.163C22.1098 88.6005 21.3347 86.0379 20.5569 83.4754C20.1641 82.1821 19.7659 80.8901 19.3625 79.5995C18.9643 78.3342 18.5224 77.0851 18.168 75.8079C18.0247 75.2897 17.945 75.5749 18.1322 76.2336C18.5024 77.5591 18.8687 78.8885 19.255 80.214C20.0115 82.8381 20.7759 85.4596 21.5483 88.0783C23.0773 93.2918 24.6195 98.5012 26.1749 103.707C26.9527 106.32 27.7317 108.931 28.5121 111.539C28.9067 112.782 29.2245 114.048 29.4637 115.33C29.674 116.67 29.7274 118.031 29.623 119.383C29.4518 122.106 29.1372 124.826 28.8904 127.541C28.6435 130.256 28.3887 132.987 28.1418 135.706C27.6455 141.126 27.1518 146.544 26.6607 151.961C26.601 152.648 26.5412 153.335 26.4895 154.026C26.4895 154.255 26.816 154.235 26.8399 154.026C27.4212 148.672 27.8671 143.294 28.3648 137.931C28.8625 132.569 29.3602 127.251 29.8539 121.914C29.9773 120.572 30.1207 119.23 30.1207 117.897C30.1174 116.645 29.9745 115.397 29.6947 114.178Z" fill="#263238"/>
<path d="M28.2293 71.7749C27.1901 79.8762 25.2113 95.0707 23.77 106.084C20.3976 92.7492 14.9747 71.7749 14.9747 71.7749H28.2293Z" fill="#263238"/>
<path d="M31.9005 168.148C31.0444 168.429 6.54579 168.2 5.62206 167.594C5.2677 167.369 5.09251 163.766 5.00492 159.404V159.267C4.98501 158.372 4.96908 157.444 4.9651 156.508C4.9651 156.379 4.9651 156.251 4.9651 156.106C4.90936 149.816 5.36326 143.29 5.36326 143.29L21.3772 143.394L20.9272 156.094V156.596L20.8396 159.227V159.496C20.8396 159.496 30.1366 163.842 31.0842 164.605C32.0318 165.368 32.7605 167.859 31.9005 168.148Z" fill="#F7A9A0"/>
<path d="M31.9004 168.148C31.0444 168.429 6.54577 168.2 5.62205 167.593C5.26769 167.368 5.0925 163.765 5.0049 159.404V159.267C4.985 158.371 4.96907 157.443 4.96509 156.508C4.96509 156.379 4.96509 156.251 4.96509 156.106H20.9232V156.608L20.8356 159.239V159.508C20.8356 159.508 30.1366 163.842 31.0842 164.605C32.0318 165.368 32.7605 167.858 31.9004 168.148Z" fill="#EBEBEB"/>
<path d="M32 168.095C31.132 168.377 6.41037 168.14 5.4747 167.529C5.11636 167.3 4.94117 163.665 4.85358 159.267L20.7799 159.376C20.7799 159.376 30.2043 163.737 31.1598 164.517C32.1154 165.296 32.864 167.81 32 168.095Z" fill="#A3A30A"/>
<path d="M31.6536 167.095C27.5087 166.951 10.7861 166.77 6.68112 166.947C6.64926 166.947 6.64926 166.971 6.68112 166.971C10.7821 167.204 27.5087 167.248 31.6536 167.164C31.7411 167.16 31.7411 167.095 31.6536 167.095Z" fill="#263238"/>
<path d="M29.5911 163.605C29.1307 163.589 28.672 163.669 28.2438 163.841C27.8156 164.012 27.4271 164.271 27.1026 164.601C26.515 165.192 26.1757 165.989 26.155 166.826C26.155 166.85 26.2028 166.85 26.2068 166.826C26.3548 166 26.7648 165.244 27.3751 164.672C27.9853 164.101 28.763 163.745 29.5911 163.657C29.5963 163.655 29.6007 163.652 29.6039 163.647C29.607 163.642 29.6087 163.637 29.6087 163.631C29.6087 163.625 29.607 163.62 29.6039 163.615C29.6007 163.611 29.5963 163.607 29.5911 163.605Z" fill="#263238"/>
<path d="M22.3964 159.825C20.7361 159.789 18.813 160.36 17.7659 161.717C17.7261 161.769 17.7977 161.83 17.8495 161.801C19.3078 161.05 20.8414 160.458 22.4243 160.034C22.4468 160.025 22.4656 160.009 22.4778 159.988C22.49 159.967 22.4949 159.943 22.4917 159.919C22.4885 159.895 22.4774 159.872 22.4601 159.855C22.4428 159.838 22.4204 159.828 22.3964 159.825Z" fill="#263238"/>
<path d="M23.6705 160.323C22.0142 160.283 20.0871 160.853 19.0399 162.215C19.0001 162.267 19.0758 162.323 19.1235 162.299C20.5813 161.546 22.115 160.952 23.6984 160.528C23.7223 160.521 23.743 160.506 23.7566 160.485C23.7703 160.464 23.7759 160.438 23.7725 160.413C23.7691 160.389 23.7569 160.366 23.7382 160.349C23.7195 160.333 23.6954 160.323 23.6705 160.323Z" fill="#263238"/>
<path d="M24.9486 160.837C23.2883 160.797 21.3652 161.372 20.318 162.729C20.2743 162.781 20.3499 162.838 20.4017 162.814C21.8579 162.06 23.3904 161.468 24.9725 161.046C24.9949 161.038 25.0138 161.022 25.0262 161.001C25.0386 160.981 25.0439 160.956 25.0411 160.932C25.0384 160.909 25.0278 160.886 25.011 160.869C24.9943 160.852 24.9723 160.841 24.9486 160.837Z" fill="#263238"/>
<path d="M26.2226 161.355C24.5623 161.315 22.6392 161.886 21.5921 163.247C21.5522 163.299 21.6279 163.356 21.6757 163.332C23.1331 162.577 24.6669 161.983 26.2505 161.56C26.2745 161.553 26.2952 161.538 26.3088 161.517C26.3224 161.496 26.328 161.471 26.3246 161.446C26.3212 161.421 26.3091 161.398 26.2903 161.381C26.2716 161.365 26.2475 161.356 26.2226 161.355Z" fill="#263238"/>
<path d="M7.77604 162.986C5.91266 162.986 5.89276 165.89 7.77604 165.902C9.65933 165.914 9.63942 162.998 7.77604 162.986Z" fill="white"/>
<path d="M24.2319 155.359C23.3958 154.648 22.3327 155.327 21.8071 156.05C20.9304 157.309 20.3976 158.779 20.2623 160.311C20.2615 160.318 20.2624 160.325 20.2648 160.332C20.2672 160.338 20.271 160.344 20.2761 160.349C20.2811 160.353 20.2872 160.357 20.2938 160.359C20.3003 160.361 20.3073 160.361 20.314 160.36C20.3194 160.391 20.3323 160.421 20.3517 160.447C20.371 160.473 20.3962 160.493 20.4251 160.507C20.454 160.521 20.4858 160.528 20.5177 160.526C20.5497 160.525 20.5809 160.516 20.6087 160.5C21.8031 159.697 23.1688 158.966 24.0766 157.809C24.5982 157.134 25.0202 156.03 24.2319 155.359ZM22.1615 158.898C21.5881 159.299 20.9949 159.701 20.4374 160.127C20.7206 159.287 21.0462 158.463 21.4129 157.656C21.5942 157.27 21.8004 156.895 22.0301 156.536C22.3964 155.986 24.0209 154.604 24.1841 156.423C24.2478 157.416 22.8463 158.404 22.1615 158.898Z" fill="#263238"/>
<path d="M16.1334 160.894C17.5747 161.131 19.0718 160.729 20.4893 160.524C20.5193 160.516 20.5471 160.502 20.5707 160.482C20.5942 160.461 20.6129 160.436 20.6252 160.407C20.6375 160.378 20.6431 160.347 20.6416 160.316C20.6401 160.285 20.6316 160.254 20.6167 160.227C20.6224 160.223 20.6271 160.217 20.6303 160.211C20.6336 160.205 20.6353 160.198 20.6353 160.191C20.6353 160.184 20.6336 160.177 20.6303 160.17C20.6271 160.164 20.6224 160.159 20.6167 160.155C19.4934 159.118 18.1208 158.395 16.6351 158.058C15.7631 157.881 14.5249 158.106 14.3855 159.199C14.2461 160.227 15.2933 160.753 16.1334 160.894ZM15.142 159.93C14.0351 158.484 16.1692 158.391 16.8063 158.548C17.2131 158.654 17.6122 158.788 18.0008 158.95C18.8057 159.3 19.5924 159.692 20.3579 160.123C19.6531 160.183 18.9603 160.299 18.2596 160.388C17.4314 160.496 15.7552 160.729 15.142 159.93Z" fill="#263238"/>
<path d="M29.4438 71.7749C29.4438 71.7749 29.0974 79.0046 27.453 84.7081C27.3216 85.1821 27.1782 85.644 27.0269 86.0898C25.5279 86.7038 24.0873 87.454 22.7229 88.331C22.7229 88.331 22.5517 94.1349 22.3805 100.614C22.1893 107.843 21.9823 115.925 22.0301 117.64C22.1814 124.066 21.2338 159.279 21.2338 159.279L3.5914 159.351C3.5914 159.351 6.77666 119.989 6.77666 117.656C6.74083 113.884 7.62872 97.2075 8.31753 85.0495C8.71569 77.5547 9.08199 71.795 9.08199 71.795L29.4438 71.7749Z" fill="#37474F"/>
<path d="M20.6166 156.11C17.9211 156.066 18.6935 156.042 16.002 156.026C14.6801 156.026 6.01617 155.977 4.78587 156.19C4.77848 156.19 4.77139 156.193 4.76616 156.199C4.76093 156.204 4.758 156.211 4.758 156.218C4.758 156.226 4.76093 156.233 4.76616 156.238C4.77139 156.244 4.77848 156.247 4.78587 156.247C6.01617 156.447 14.6841 156.331 16.002 156.315C18.6975 156.275 17.9211 156.259 20.6166 156.19C20.6272 156.19 20.6373 156.186 20.6448 156.179C20.6522 156.171 20.6564 156.161 20.6564 156.15C20.6564 156.14 20.6522 156.129 20.6448 156.122C20.6373 156.114 20.6272 156.11 20.6166 156.11Z" fill="#263238"/>
<path d="M10.5512 74.3538C10.2247 84.2827 9.88233 94.2115 9.44038 104.132C8.99842 114.053 8.40517 124.046 7.58098 133.975C7.11912 139.526 6.68115 147.334 6.08789 152.853C6.08789 152.889 6.13965 152.905 6.14761 152.853C7.42968 143.004 8.1384 130.83 8.77944 120.917C9.42047 111.005 9.83853 101.084 10.173 91.163C10.3641 85.5399 10.5074 79.9167 10.6747 74.3177C10.6627 74.2735 10.5552 74.2735 10.5512 74.3538Z" fill="#263238"/>
<path d="M27.7834 85.6604C26.0233 86.4017 24.3301 87.2954 22.7228 88.3313C22.7119 88.3401 22.7043 88.3525 22.7015 88.3664C22.6987 88.3802 22.7008 88.3946 22.7074 88.4071C22.714 88.4195 22.7248 88.4292 22.7378 88.4345C22.7508 88.4397 22.7653 88.4402 22.7786 88.4358C24.4787 87.6003 26.2147 86.797 27.871 85.8692C27.892 85.8537 27.9072 85.8315 27.9142 85.8062C27.9211 85.7809 27.9194 85.754 27.9092 85.7298C27.8991 85.7056 27.8811 85.6856 27.8583 85.673C27.8355 85.6604 27.8091 85.6559 27.7834 85.6604Z" fill="#263238"/>
<path d="M27.8671 79.5388C27.7477 80.1694 27.5964 80.796 27.469 81.4266C27.3415 82.0571 27.25 82.6315 27.0947 83.2019C26.9662 83.7655 26.6818 84.2809 26.2745 84.688C26.0475 84.9008 25.7927 85.0896 25.5498 85.2904L25.1517 85.6078C25.1517 85.5234 25.1875 85.4391 25.1995 85.3507C25.2433 85.1097 25.2831 84.8727 25.3229 84.6317C25.4105 84.0975 25.4941 83.5633 25.5777 83.0251C25.737 81.9728 25.8803 80.9124 26.0993 79.8762C26.0993 79.832 26.0436 79.8159 26.0356 79.8762C25.7768 80.9044 25.4901 81.9206 25.2632 82.9609C25.1517 83.471 24.7575 85.9853 24.7416 86.1741C24.7257 86.3629 24.7057 86.5436 24.7018 86.7284C24.6756 86.9149 24.6756 87.1042 24.7018 87.2907C24.7018 87.3389 24.7655 87.3308 24.7854 87.2907C24.8629 87.1168 24.9165 86.933 24.9446 86.7444C24.9924 86.5677 25.0322 86.3829 25.0641 86.2022C25.0641 86.1379 25.0641 86.0697 25.092 86.0014C25.3388 85.8528 25.5658 85.6519 25.7967 85.4832C26.0276 85.3146 26.2984 85.1258 26.5293 84.929C26.9487 84.5532 27.2468 84.0594 27.3853 83.5111C27.537 82.9188 27.6356 82.3139 27.68 81.7037C27.7596 80.9888 27.8154 80.2698 27.9149 79.5589C27.9388 79.4946 27.8751 79.4946 27.8671 79.5388Z" fill="#263238"/>
<path d="M21.4129 55.4237C22.7786 59.5728 28.8943 72.763 31.4624 73.6868C34.138 74.6427 44.4702 75.8357 46.7636 74.0162C47.8864 73.1205 48.2766 63.5732 46.7636 63.8142C45.2506 64.0552 36.1408 64.3886 35.0578 63.999C33.9748 63.6094 26.7403 52.9856 23.8019 50.399C18.7333 45.9607 20.6843 53.1865 21.4129 55.4237Z" fill="#F7A9A0"/>
<path d="M44.4782 63.6535L44.3309 75.5384C44.3309 75.5384 33.7359 75.5665 30.913 74.0684C28.0901 72.5702 22.1177 58.8377 20.6246 53.5841C19.1315 48.3305 21.5205 47.5191 25.3149 51.375C29.1093 55.2309 34.8149 63.3121 35.4918 63.4768C36.1687 63.6415 44.4782 63.6535 44.4782 63.6535Z" fill="#A3A30A"/>
<path d="M30.3397 57.2471C28.1597 57.616 26.0487 58.3204 24.0807 59.3357L23.7223 59.5244C23.6307 59.5686 23.5431 59.6168 23.4555 59.669C23.2804 59.7614 23.1092 59.8578 22.9379 59.9622L22.8623 59.7695L23.2246 59.5566L23.4874 59.416C23.6506 59.3236 23.8179 59.2312 23.9851 59.1469C24.9957 58.6179 26.0494 58.1772 27.1345 57.8295C28.1389 57.5013 29.1664 57.2503 30.2083 57.0784L30.3397 57.2471ZM32.7047 60.2474C32.5169 60.3469 32.3242 60.4367 32.1274 60.5165C31.6188 60.7327 31.0828 60.876 30.5348 60.9423C30.2561 60.9744 29.9774 61.0226 29.6987 61.0387L28.8585 61.0628C27.7346 61.0321 26.6256 60.7953 25.5857 60.3639C24.9606 60.1189 24.3514 59.8217 23.7422 59.5244C23.6626 59.4923 23.5869 59.4522 23.5073 59.416C23.3162 59.3276 23.1092 59.2353 22.93 59.1509L22.7428 59.0706L22.5677 58.9943L22.6353 59.163C22.6353 59.2112 22.6752 59.2594 22.6911 59.3076H22.7269L23.2405 59.5405L23.4715 59.653C24.1324 59.9703 24.7973 60.3077 25.4901 60.5808C26.5579 61.0239 27.6965 61.2675 28.8506 61.2998L29.7106 61.2797C29.9973 61.2797 30.2839 61.2114 30.5666 61.1793C31.1415 61.1123 31.7043 60.965 32.2389 60.7415C32.4607 60.6534 32.6773 60.5528 32.8879 60.4402L32.7047 60.2474ZM28.6276 55.1304C27.8826 55.479 27.1581 55.8706 26.4577 56.3032C25.1399 57.1212 23.8908 58.0467 22.7229 59.0706L22.6154 59.163C22.6154 59.2112 22.6553 59.2594 22.6712 59.3076V59.3397C22.6712 59.3397 22.6712 59.3397 22.6951 59.3397C22.7628 59.2794 22.8265 59.2192 22.8941 59.167C24.0414 58.181 25.265 57.2892 26.5532 56.5C27.267 56.0693 28.0019 55.6752 28.755 55.3191L28.6276 55.1304Z" fill="white"/>
<path d="M41.3925 69.5216C41.3925 68.5777 41.4602 64.8142 41.5438 63.8984H41.5716C41.6632 64.8062 41.711 68.5215 41.707 69.4653C41.7378 71.3422 41.6673 73.2193 41.496 75.0885C41.4937 75.0946 41.4897 75.0999 41.4843 75.1037C41.479 75.1074 41.4726 75.1094 41.4661 75.1094C41.4596 75.1094 41.4533 75.1074 41.4479 75.1037C41.4426 75.0999 41.4385 75.0946 41.4363 75.0885C41.2969 73.2369 41.3726 71.3772 41.3925 69.5216Z" fill="#263238"/>
<path opacity="0.1" d="M20.6166 53.5802C22.1097 58.8378 28.0821 72.5663 30.905 74.0645C32.2587 74.7834 35.3962 75.1529 38.2988 75.3377L21.6717 48.9692C20.2503 48.8166 19.7128 50.371 20.6166 53.5802Z" fill="black"/>
<path d="M7.23057 82.4954C7.29428 82.5597 33.1427 80.7763 33.3577 80.4872C33.6603 80.0855 25.4781 53.5764 23.4276 49.7005C22.5557 48.0417 18.375 47.8007 16.7226 49.3711C12.5858 53.2953 9.70711 65.9835 9.10192 69.7871C8.09856 76.0609 6.99964 82.2665 7.23057 82.4954Z" fill="#A3A30A"/>
<path d="M31.9761 75.2132L31.2514 74.7834C30.2747 74.2095 29.2686 73.688 28.2374 73.221L27.672 72.972L27.3972 72.8595C26.6358 72.5422 25.8552 72.2739 25.0601 72.0562C23.9734 71.7504 22.8601 71.5513 21.7354 71.4618C19.4787 71.3631 17.2204 71.6206 15.0424 72.2249L14.6443 72.3374C14.5447 72.3615 14.4492 72.3896 14.3536 72.4217C12.836 72.8897 11.3613 73.4891 9.946 74.2131C9.54784 74.4019 9.14969 74.6147 8.78338 74.8116L8.66393 74.8758L8.22596 75.1128L8.26179 74.908L8.71171 74.675C9.15765 74.43 9.60757 74.193 10.0615 73.9721C10.4357 73.7793 10.818 73.5986 11.2002 73.4259C12.1617 72.981 13.1481 72.5935 14.1545 72.2651L14.4452 72.1807C14.6244 72.1205 14.8035 72.0683 14.9867 72.0201C16.0835 71.7088 17.2053 71.4952 18.3392 71.3814C19.4709 71.2575 20.6108 71.228 21.7474 71.2931C23.7464 71.4654 25.7051 71.9603 27.5485 72.7591L27.8193 72.8796L28.2931 73.0925C29.3259 73.5726 30.3321 74.1089 31.3072 74.6991L31.9283 75.0686L31.9761 75.2132ZM30.6382 70.795C29.9773 71.1967 29.3323 71.5983 28.6913 72.0241C28.2931 72.2731 27.9308 72.5262 27.5485 72.7712L27.3972 72.8716C26.8757 73.209 26.3461 73.5343 25.8046 73.8396C24.8352 74.4112 23.7793 74.8182 22.6791 75.0445C22.1296 75.1508 21.5681 75.1792 21.0108 75.1289C20.7321 75.1007 20.4494 75.0927 20.1747 75.0525L19.3465 74.9039C18.2529 74.6398 17.2157 74.1785 16.2847 73.5423C15.7233 73.1728 15.1897 72.739 14.6482 72.3374L14.4412 72.1807C14.274 72.0522 14.1028 71.9237 13.9316 71.8032L13.7683 71.6827L13.5294 71.518C12.581 70.8368 11.4558 70.4501 10.2924 70.4054C9.83337 70.4141 9.37985 70.508 8.95459 70.6826L8.91876 70.8995C9.35317 70.7169 9.81788 70.6188 10.2884 70.6103C11.4096 70.6646 12.4905 71.0485 13.398 71.7148L13.5374 71.8112L13.7006 71.9277C13.8519 72.0361 14.0032 72.1486 14.1505 72.2651L14.3576 72.4217C14.9429 72.8716 15.5242 73.3375 16.1493 73.7472C17.1027 74.4008 18.1657 74.8744 19.2868 75.1449L20.1388 75.3016C20.4215 75.3417 20.7082 75.3538 20.9949 75.3819C21.572 75.4321 22.1532 75.4038 22.7229 75.2976C23.8457 75.0633 24.9221 74.6425 25.9081 74.0524C26.5014 73.715 27.0787 73.3495 27.6481 72.972L27.7954 72.8796L28.7988 72.2169C29.4199 71.8152 30.049 71.4136 30.686 71.0119L30.6382 70.795ZM30.2003 69.3732C29.5087 69.1477 28.8056 68.96 28.094 68.8109C26.9739 68.5824 25.8324 68.4773 24.6898 68.4976C23.5468 68.5193 22.4079 68.6402 21.2855 68.8591C20.1639 69.0725 19.0603 69.3733 17.9848 69.7588C16.5302 70.2861 15.1213 70.9336 13.7723 71.6947C13.6927 71.7349 13.617 71.7791 13.5414 71.8233C12.976 72.1406 12.4225 72.4699 11.8731 72.8113C11.2639 73.1889 10.6587 73.5785 10.0615 73.9721C9.59562 74.2733 9.13376 74.5826 8.6719 74.8879L8.22596 75.1811C8.22596 75.2453 8.20605 75.3056 8.19809 75.3658C8.78736 74.9883 9.36867 74.6027 9.95396 74.2251C10.3521 73.956 10.7821 73.6869 11.2002 73.4218C11.451 73.2612 11.7019 73.1045 11.9567 72.9519C12.53 72.6025 13.1153 72.2611 13.7046 71.9357L13.9355 71.8112C15.2572 71.0812 16.6353 70.4606 18.0565 69.9556C20.1896 69.1892 22.4268 68.7584 24.6898 68.6783C25.821 68.652 26.9516 68.7489 28.0622 68.9675C28.8037 69.1182 29.5362 69.3113 30.256 69.5459C30.2361 69.4776 30.2162 69.4174 30.2003 69.3611V69.3732Z" fill="white"/>
<path d="M13.2507 52.3832C6.39049 60.0146 -1.34571 72.9117 1.96298 75.6791C4.98897 78.1934 16.0259 75.7996 22.9658 73.0643C24.2877 72.5422 18.9285 60.7577 17.5827 61.4565C16.1657 62.2175 14.703 62.8882 13.203 63.4648C12.8048 63.5692 14.9071 60.9987 17.2323 54.8212C19.5814 48.5113 17.1726 48.0172 13.2507 52.3832Z" fill="#F7A9A0"/>
<path d="M34.4446 60.565C34.4446 61.9346 31.1041 61.6655 31.1041 61.6655C31.591 61.9854 31.9516 62.4671 32.1234 63.0271C32.3742 64.0352 30.9289 64.8787 30.9289 64.8787C31.3628 65.3179 31.6579 65.877 31.777 66.4853C31.9203 67.4734 30.5825 68.5378 30.5825 68.5378C30.7595 69.1689 30.7058 69.8431 30.4312 70.4376C29.6349 72 26.9593 72.0442 25.3069 72.3816C23.4555 72.8134 21.6418 73.3964 19.884 74.1248L16.8102 61.8141C16.8102 61.8141 23.9771 57.5204 25.9679 57.6168C27.6481 57.7333 34.4367 58.4683 34.4446 60.565Z" fill="#F7A9A0"/>
<path d="M31.0762 61.6251C29.3004 61.1029 27.4052 61.0146 25.5776 60.9463C25.5378 60.9463 25.5338 61.0065 25.5776 61.0105C27.4012 61.0547 29.2526 61.5929 31.0642 61.7134C31.0759 61.715 31.0876 61.7119 31.097 61.7048C31.1063 61.6976 31.1124 61.687 31.114 61.6753C31.1156 61.6636 31.1125 61.6517 31.1054 61.6423C31.0983 61.6329 31.0878 61.6267 31.0762 61.6251Z" fill="#263238"/>
<path d="M30.8692 64.754C30.4546 64.6753 30.0315 64.6524 29.611 64.6857C29.1651 64.6857 28.7191 64.7058 28.2732 64.7259C27.3787 64.7661 26.4868 64.8303 25.5976 64.9187C25.5577 64.9187 25.5538 64.983 25.5976 64.983C26.4894 64.9428 27.3813 64.9147 28.2692 64.9107H29.607C30.0279 64.9455 30.4513 64.9321 30.8692 64.8705C30.8802 64.8653 30.8895 64.8571 30.896 64.8468C30.9025 64.8365 30.9059 64.8245 30.9059 64.8123C30.9059 64.8 30.9025 64.788 30.896 64.7777C30.8895 64.7674 30.8802 64.7592 30.8692 64.754Z" fill="#263238"/>
<path d="M30.5189 68.5737C30.1435 68.5073 29.7595 68.5073 29.3841 68.5737L28.1817 68.65C27.3854 68.6942 26.5532 68.7424 25.737 68.7584C25.7285 68.7584 25.7204 68.7618 25.7145 68.7678C25.7085 68.7739 25.7051 68.782 25.7051 68.7906C25.7051 68.7991 25.7085 68.8073 25.7145 68.8133C25.7204 68.8193 25.7285 68.8227 25.737 68.8227C26.5652 68.8227 27.3933 68.8227 28.2215 68.7865L29.4399 68.7504C29.8111 68.7731 30.1833 68.7282 30.5388 68.6179C30.5446 68.6152 30.5491 68.6103 30.5513 68.6043C30.5536 68.5983 30.5534 68.5916 30.5507 68.5857C30.5481 68.5799 30.5432 68.5753 30.5373 68.573C30.5313 68.5708 30.5247 68.571 30.5189 68.5737Z" fill="#263238"/>
<path d="M16.4639 61.7137L19.1076 74.9683C19.1076 74.9683 2.67566 79.2941 0.971544 75.1008C-0.732571 70.9076 8.9347 55.3355 14.5089 50.8932C20.0831 46.4509 17.9888 53.4477 17.8176 54.01C17.0651 56.4963 13.5613 62.9789 13.5613 62.9789L16.4639 61.7137Z" fill="#A3A30A"/>
<path d="M19.1076 74.9521C19.1076 74.9521 2.67567 79.2779 0.971556 75.0847C0.0557934 72.8274 2.42881 67.2806 5.68176 61.9426L5.73352 61.8583L5.80121 61.7498C5.82112 61.7137 5.845 61.6775 5.86889 61.6414C7.04368 59.7311 8.31412 57.8825 9.67528 56.1026L9.81464 55.9218C11.1857 54.0695 12.7575 52.3774 14.5009 50.8771C20.0752 46.4348 17.9808 53.4316 17.8096 53.9939C17.7579 54.1706 17.6902 54.3675 17.6106 54.5803C17.5787 54.6607 17.5469 54.749 17.511 54.8374C17.0531 56.0182 16.3165 57.6088 15.572 59.0708L15.4844 59.2475C15.4844 59.2475 15.4844 59.2877 15.4565 59.3038L15.4087 59.3961C14.4651 61.2719 13.6091 62.8624 13.5573 62.9588L16.4639 61.7137L19.1076 74.9521Z" fill="#A3A30A"/>
<path d="M15.572 59.0705L15.4844 59.2473C15.4844 59.2473 15.4844 59.2874 15.4565 59.3035L15.2574 59.432L13.6369 60.4964C12.6859 61.1282 11.692 61.6919 10.6627 62.1834C10.1416 62.4257 9.59544 62.6089 9.03424 62.7296C8.46612 62.8631 7.87333 62.8451 7.3142 62.6774C7.17484 62.6372 7.0315 62.6051 6.91604 62.5609L6.51788 62.3882C6.25325 62.2743 5.99767 62.14 5.75342 61.9866L5.6937 61.9504L5.74546 61.8661L5.81314 61.7576C5.83107 61.7749 5.85115 61.7897 5.87287 61.8018L5.92861 61.8339C6.14322 61.9766 6.36969 62.1002 6.60548 62.2034L7.00363 62.3721L7.40179 62.4886C7.9315 62.6515 8.49415 62.6723 9.03424 62.5489C9.58241 62.434 10.1165 62.2589 10.6269 62.0267C11.6492 61.5468 12.6376 60.9965 13.5852 60.3799L14.8792 59.5445L15.2176 59.3236L15.572 59.0705ZM15.1738 59.3156C13.1313 59.8176 11.1285 60.4563 9.08998 60.9583C8.02292 61.2274 6.93993 61.4644 5.85296 61.6411C5.82907 61.6773 5.80518 61.7134 5.78527 61.7496L5.71759 61.858L5.90074 61.8259C6.98771 61.6411 8.06672 61.3961 9.13378 61.123C11.0489 60.637 12.9282 60.0345 14.8354 59.5365L15.2336 59.432C15.2813 59.432 15.3331 59.4039 15.3848 59.3959L15.4326 59.3035C15.4326 59.3035 15.4326 59.2674 15.4605 59.2473L15.1738 59.3156ZM15.3052 55.9778C14.8097 56.2472 14.2913 56.4717 13.7564 56.6486C13.2319 56.829 12.6765 56.9 12.1239 56.8574C11.2856 56.7385 10.488 56.4175 9.7987 55.9216L9.65934 56.1023C10.3844 56.616 11.2217 56.9453 12.1 57.0623C12.6819 57.1048 13.2661 57.0255 13.8161 56.8293C14.3674 56.6487 14.9007 56.416 15.4087 56.1345C16.1323 55.7385 16.8353 55.3055 17.515 54.8371C17.5508 54.7488 17.5827 54.6604 17.6145 54.5801C16.8747 55.0859 16.1092 55.5524 15.3211 55.9778H15.3052Z" fill="white"/>
<path d="M16.1812 61.7256C14.2939 62.3924 9.34878 64.8826 8.26181 65.9028C8.25716 65.909 8.25458 65.9164 8.25446 65.9242C8.25434 65.9319 8.25667 65.9395 8.26113 65.9458C8.26558 65.9521 8.27192 65.9567 8.27921 65.9591C8.2865 65.9615 8.29435 65.9615 8.30163 65.959C9.36869 65.1999 15.4685 62.1835 16.436 61.814C16.436 61.814 16.4838 61.9305 16.5037 61.9626C16.5236 61.9947 16.5594 61.9827 16.5594 61.9385C16.5425 61.8299 16.5186 61.7226 16.4877 61.6172L16.1812 61.7256Z" fill="#263238"/>
<path d="M14.7757 69.1318C14.5965 68.208 13.9117 64.5047 13.8121 63.5729C13.8121 63.5729 13.8121 63.5528 13.836 63.5729C14.1068 64.4405 14.8872 68.0754 15.0703 68.9992C15.4754 70.8365 15.7798 72.695 15.9821 74.5661C15.9821 74.5982 15.9343 74.6183 15.9224 74.5661C15.4406 72.7908 15.1261 70.9512 14.7757 69.1318Z" fill="#263238"/>
<path d="M13.4259 63.0271C13.9395 61.8985 14.5686 60.826 15.134 59.7255C15.6994 58.625 16.2847 57.5325 16.8103 56.4199H16.8341C16.5156 57.179 16.1971 57.9382 15.8547 58.6852C15.9582 58.5688 16.0538 58.4442 16.1493 58.3197C16.3245 58.0948 16.4838 57.8578 16.643 57.6209C16.643 57.6209 16.6709 57.6209 16.6669 57.6209C16.543 57.8866 16.3893 58.1373 16.209 58.3679C16.0758 58.5411 15.9293 58.7036 15.7711 58.8539C15.6317 59.1592 15.4844 59.4644 15.3331 59.7657C14.8429 60.8869 14.2692 61.9691 13.617 63.003C13.5931 63.0793 13.406 63.0793 13.4259 63.0271Z" fill="#263238"/>
<path d="M7.97117 76.8201C9.9102 76.796 17.2323 75.346 19.0439 74.9685C19.02 74.7757 19.0439 74.7074 18.9962 74.4343C18.9962 74.3981 19.0479 74.3821 19.0559 74.4343C19.1037 74.6954 19.2788 75.2135 19.2072 75.2376C18.3352 75.583 9.87437 77.0731 7.97117 76.9125C7.96516 76.9125 7.95921 76.9113 7.95365 76.909C7.9481 76.9066 7.94305 76.9032 7.9388 76.899C7.93454 76.8947 7.93117 76.8896 7.92887 76.884C7.92657 76.8784 7.92538 76.8724 7.92538 76.8663C7.92538 76.8602 7.92657 76.8542 7.92887 76.8486C7.93117 76.843 7.93454 76.8379 7.9388 76.8336C7.94305 76.8293 7.9481 76.8259 7.95365 76.8236C7.95921 76.8213 7.96516 76.8201 7.97117 76.8201Z" fill="#263238"/>
<path d="M27.6879 75.4822L41.3208 77.3338L46.4929 58.2192L32.86 56.3716L27.6879 75.4822Z" fill="#263238"/>
<path d="M28.3608 75.5706L41.9897 77.4222L47.1618 58.3116L33.5329 56.46L28.3608 75.5706Z" fill="#37474F"/>
<path d="M39.6645 66.3326C39.5794 66.6897 39.3675 67.003 39.0689 67.2132C38.7703 67.4234 38.4057 67.5159 38.044 67.4733C37.8734 67.4551 37.7087 67.4001 37.5611 67.3119C37.4135 67.2237 37.2864 67.1045 37.1886 66.9623C37.0907 66.8201 37.0244 66.6584 36.994 66.4881C36.9637 66.3177 36.9701 66.1428 37.0128 65.9752C37.0979 65.6177 37.3097 65.3041 37.6082 65.0932C37.9066 64.8824 38.2713 64.7889 38.6333 64.8305C38.8044 64.8486 38.9695 64.9037 39.1175 64.9921C39.2654 65.0806 39.3927 65.2002 39.4906 65.3428C39.5886 65.4854 39.6548 65.6477 39.6848 65.8186C39.7148 65.9894 39.7079 66.1647 39.6645 66.3326Z" fill="white"/>
<path d="M47.0265 62.252C47.5958 63.8586 49.2203 65.9512 49.2442 67.2204C49.2603 67.533 49.1766 67.8426 49.0053 68.1036C48.834 68.3646 48.5842 68.5633 48.2926 68.6704C48.2926 68.6704 49.4871 69.4214 49.2999 70.5742C49.2163 71.1686 48.197 71.5542 48.197 71.5542C48.4547 71.7383 48.6569 71.9906 48.7813 72.2834C48.9057 72.5761 48.9473 72.8979 48.9018 73.213C48.7345 74.0164 47.7392 74.2855 47.7392 74.2855C47.7392 74.2855 48.3364 75.3177 47.9024 76.0889C47.0185 77.6513 40.0069 76.9324 39.1867 74.2132C38.7886 72.948 40.5046 73.2171 40.5046 73.2171C40.5046 73.2171 38.1475 72.233 38.259 70.771C38.3705 69.309 40.5604 69.791 40.5604 69.791C40.5604 69.791 38.2869 68.819 38.5696 67.3128C38.8523 65.8066 40.9585 66.6099 40.9585 66.6099C40.9585 66.6099 39.5053 65.4049 39.9711 64.2803C40.7395 62.4528 43.455 65.1278 45.0317 64.9149L46.1425 62.4367L47.0265 62.252Z" fill="#F7A9A0"/>
<path d="M48.209 64.6334C47.8108 63.063 49.8494 61.384 49.6742 59.8136C49.4393 57.7049 46.9349 59.4923 46.1226 62.4324L45.8877 64.8423L48.209 64.6334Z" fill="#F7A9A0"/>
<path d="M47.5918 74.3495C47.5971 74.3495 47.6021 74.3516 47.6059 74.3554C47.6096 74.3592 47.6117 74.3643 47.6117 74.3696C47.6117 74.3749 47.6096 74.38 47.6059 74.3838C47.6021 74.3876 47.5971 74.3897 47.5918 74.3897C45.1399 74.7375 42.641 74.3271 40.425 73.2128C40.3533 73.1767 40.3852 73.0441 40.4688 73.0722C42.7691 73.8444 45.1686 74.2747 47.5918 74.3495Z" fill="#263238"/>
<path d="M48.2289 71.5704C48.2568 71.5704 48.2568 71.6186 48.2289 71.6226C45.5173 71.9856 42.7664 71.3588 40.4728 69.8553C40.3931 69.7991 40.3772 69.6706 40.4728 69.7268C42.0773 70.6587 45.9514 71.5343 48.2289 71.5704Z" fill="#263238"/>
<path d="M40.8072 66.4413C43.0648 67.8913 45.5532 68.4496 48.193 68.6865C48.2249 68.6865 48.2209 68.7388 48.193 68.7428C46.8711 68.9918 45.2029 68.6745 43.9288 68.317C42.7358 68.009 41.6441 67.3898 40.7634 66.5216C40.7236 66.4855 40.7594 66.4092 40.8072 66.4413Z" fill="#263238"/>
<path d="M23.9094 50.7203C23.9572 51.9253 23.993 54.6605 22.1535 54.4557C21.4142 54.3075 20.7327 53.9478 20.1906 53.4194C19.6103 52.9335 19.0855 52.3839 18.6259 51.7807C18.0986 51.1254 17.6246 50.4283 17.2084 49.6961C17.2084 49.668 17.1447 49.6961 17.1646 49.7283C17.5867 50.4633 17.937 51.2224 18.4308 51.9173C18.897 52.5907 19.4515 53.1974 20.0791 53.7207C20.6686 54.2731 21.4123 54.6293 22.2093 54.7409C22.5511 54.7652 22.8907 54.6692 23.1702 54.4693C23.4497 54.2693 23.6518 53.9778 23.7422 53.6444C24.0141 52.6946 24.0712 51.6954 23.9094 50.7203Z" fill="#263238"/>
<path d="M22.0978 53.2469C20.768 53.3634 18.594 50.837 17.957 49.1219C18.124 48.2282 18.3353 47.3434 18.59 46.471C18.7931 45.6235 18.9882 44.6716 19.1315 43.792L24.4111 45.9408C23.9398 46.997 23.5975 48.107 23.3918 49.2464C23.3801 49.368 23.3801 49.4904 23.3918 49.6119C23.3918 49.6119 23.3918 49.6521 23.3918 49.6722C23.4038 50.3751 23.3799 53.1344 22.0978 53.2469Z" fill="#F7A9A0"/>
<path d="M23.3759 49.6118C23.3779 49.6318 23.3779 49.652 23.3759 49.672C23.1864 49.6708 22.9974 49.6547 22.8105 49.6238C19.6491 49.0816 19.4699 45.061 19.4859 43.9404L20.8077 44.4746L24.3912 45.9407C23.92 46.9965 23.579 48.1066 23.3759 49.2463C23.3643 49.3678 23.3643 49.4902 23.3759 49.6118Z" fill="#263238"/>
<path d="M18.5264 37.7671C17.9769 39.7754 19.1555 45.4507 20.5809 46.6878C22.6513 48.4872 25.9639 48.5796 27.461 46.0854C28.9103 43.6754 27.246 36.281 25.6574 35.1644C23.3202 33.5136 19.3346 34.819 18.5264 37.7671Z" fill="#F7A9A0"/>
<path d="M24.0886 41.3579C24.0886 41.3579 24.0647 41.382 24.0886 41.3981C24.1762 41.7796 24.216 42.2335 23.8975 42.4303C23.8975 42.4303 23.8975 42.4544 23.8975 42.4504C24.2917 42.3058 24.2359 41.7073 24.0886 41.3579Z" fill="#263238"/>
<path d="M23.6706 41.0283C23.0494 41.1086 23.2724 42.3537 23.8258 42.2814C24.3793 42.2091 24.2001 40.964 23.6706 41.0283Z" fill="#263238"/>
<path d="M26.2505 40.936C26.2505 40.936 26.2864 40.936 26.2864 40.9682C26.3381 41.3698 26.4616 41.7916 26.8279 41.8639V41.8839C26.3939 41.8839 26.2386 41.3056 26.2505 40.936Z" fill="#263238"/>
<path d="M26.5293 40.4704C27.1385 40.3218 27.3893 41.5589 26.8239 41.6753C26.2585 41.7918 26.0196 40.5949 26.5293 40.4704Z" fill="#263238"/>
<path d="M23.0892 40.5347C23.2446 40.4621 23.3949 40.3789 23.5391 40.2857C23.7061 40.2203 23.8464 40.1 23.9373 39.9443C23.9577 39.8888 23.9595 39.8279 23.9422 39.7713C23.9249 39.7146 23.8896 39.6653 23.8417 39.631C23.7374 39.5773 23.6207 39.5527 23.5038 39.5598C23.3869 39.5668 23.274 39.6053 23.1768 39.6712C22.9608 39.7743 22.7905 39.9546 22.699 40.1773C22.6785 40.2309 22.6746 40.2896 22.6878 40.3455C22.701 40.4015 22.7306 40.4521 22.7728 40.4907C22.815 40.5294 22.8678 40.5543 22.9242 40.5621C22.9807 40.57 23.0382 40.5604 23.0892 40.5347Z" fill="#263238"/>
<path d="M26.9274 40.0887C26.7522 40.0887 26.589 40.0566 26.4138 40.0406C26.2311 40.049 26.0507 39.9968 25.9002 39.8919C25.8602 39.8489 25.8351 39.7939 25.8286 39.7353C25.8221 39.6766 25.8347 39.6175 25.8643 39.5666C25.9389 39.4758 26.0362 39.4067 26.1461 39.3664C26.2559 39.3262 26.3745 39.3163 26.4894 39.3377C26.7296 39.3442 26.9584 39.4417 27.1305 39.6108C27.1673 39.6512 27.1917 39.7016 27.2009 39.7557C27.21 39.8098 27.2035 39.8655 27.1821 39.916C27.1606 39.9664 27.1252 40.0096 27.08 40.0402C27.0348 40.0709 26.9819 40.0877 26.9274 40.0887Z" fill="#263238"/>
<path d="M24.1443 44.9729C24.2418 45.0715 24.3695 45.1338 24.5067 45.1496C24.6496 45.1219 24.7852 45.0644 24.9048 44.9809C24.9048 44.9809 24.9327 44.9809 24.9048 45.001C24.8616 45.0856 24.7967 45.1571 24.7169 45.2079C24.6371 45.2588 24.5453 45.2872 24.4509 45.2902C24.37 45.2814 24.2933 45.249 24.2304 45.1969C24.1674 45.1449 24.1209 45.0754 24.0966 44.997C24.1045 44.9769 24.1324 44.9528 24.1443 44.9729Z" fill="#263238"/>
<path d="M24.3594 43.6594C24.482 43.796 24.6312 43.9057 24.7977 43.9817C24.9641 44.0577 25.1442 44.0984 25.3269 44.1012C25.4866 44.1044 25.646 44.0855 25.8007 44.045L25.8883 44.0209L25.9679 43.9928C25.9882 43.9857 26.0054 43.9719 26.017 43.9537C26.0286 43.9355 26.0337 43.9139 26.0316 43.8924C26.0339 43.8791 26.0339 43.8655 26.0316 43.8522V43.8201C25.9918 43.5188 25.8883 43.073 25.8883 43.073C26.0037 43.1092 26.597 43.2698 26.5612 43.1132C26.3104 41.7783 25.9248 40.4728 25.4105 39.2171C25.408 39.2101 25.4035 39.2039 25.3974 39.1996C25.3913 39.1952 25.3841 39.1929 25.3767 39.1929C25.3692 39.1929 25.362 39.1952 25.3559 39.1996C25.3498 39.2039 25.3453 39.2101 25.3428 39.2171C25.5658 40.4542 26.0077 41.6271 26.2546 42.8762C26.0434 42.8166 25.8248 42.7882 25.6056 42.7918C25.5658 42.7918 25.8206 43.6514 25.8246 43.7879C25.587 43.852 25.3391 43.8672 25.0957 43.8327C24.8522 43.7982 24.618 43.7147 24.4071 43.5871C24.3594 43.5992 24.3315 43.6313 24.3594 43.6594Z" fill="#263238"/>
<path d="M25.6254 43.9728C25.4984 44.2065 25.3149 44.4041 25.0919 44.5472C24.9715 44.6179 24.8327 44.6501 24.6938 44.6395C24.3792 44.6114 24.3274 44.3343 24.3434 44.0852C24.3517 43.9487 24.3772 43.8137 24.419 43.6836C24.781 43.9055 25.2032 44.0067 25.6254 43.9728Z" fill="#263238"/>
<path d="M25.0919 44.5507C24.9715 44.6214 24.8327 44.6536 24.6938 44.6431C24.3792 44.615 24.3274 44.3379 24.3434 44.0888C24.5012 44.0713 24.6604 44.1071 24.7959 44.1907C24.9314 44.2743 25.0355 44.4009 25.0919 44.5507Z" fill="#FF9ABB"/>
<path d="M26.7403 36.8233C26.4218 36.3775 26.0714 35.9316 25.7529 35.8955C25.4344 35.8593 25.3986 36.6305 24.7376 36.8233C23.8418 37.0804 23.2246 36.3373 21.9505 36.5221C20.0991 36.7912 19.6253 38.5022 20.1389 41.117C20.5968 43.4546 19.251 43.9767 19.251 43.9767C19.251 43.9767 17.308 39.0244 18.379 37.0121C19.4501 34.9998 22.5836 33.5338 25.1477 34.6785C26.0595 35.0922 26.7403 36.8233 26.7403 36.8233Z" fill="#263238"/>
<path d="M20.1866 42.6792C20.1866 42.6792 18.8209 40.8918 18.0127 41.3899C17.2044 41.8879 18.2834 44.5228 19.2788 44.8441C19.4029 44.8945 19.5359 44.9189 19.6697 44.9159C19.8035 44.9129 19.9353 44.8825 20.057 44.8265C20.1788 44.7705 20.288 44.6902 20.378 44.5903C20.4681 44.4905 20.5371 44.3732 20.5808 44.2456L20.1866 42.6792Z" fill="#F7A9A0"/>
<path d="M18.3391 42.1411C18.3391 42.1411 18.3391 42.1411 18.3391 42.1692C18.6594 42.3128 18.9464 42.5224 19.1816 42.7846C19.4168 43.0468 19.595 43.3557 19.7048 43.6915C19.6618 43.6242 19.6047 43.5671 19.5377 43.5241C19.4706 43.4812 19.3952 43.4534 19.3164 43.4427C19.2377 43.432 19.1576 43.4386 19.0817 43.4622C19.0058 43.4857 18.9358 43.5256 18.8767 43.579C18.8767 43.579 18.8767 43.6192 18.8966 43.6152C19.0152 43.5702 19.1448 43.5634 19.2674 43.5958C19.3901 43.6282 19.4998 43.6981 19.5814 43.7959C19.7132 43.9626 19.8292 44.1415 19.9278 44.3301C19.9596 44.3904 20.0711 44.3542 20.0433 44.2819C20.0154 43.3822 19.2828 42.1813 18.3391 42.1411Z" fill="#263238"/>
<path d="M23.2883 33.9717C22.5116 33.7483 21.707 33.6387 20.8993 33.6464C19.9876 33.6745 17.2124 34.3372 16.6271 35.012C16.0418 35.6868 16.2807 38.3859 16.3245 38.7795C16.3683 39.1731 16.9058 41.5067 17.8455 41.9445C18.7851 42.3823 18.2436 38.3537 19.3704 36.8114C20.4972 35.269 23.2883 33.9717 23.2883 33.9717Z" fill="#A3A30A"/>
<path opacity="0.1" d="M23.2883 33.9756C23.2883 33.9756 20.5012 35.2689 19.3505 36.8112C18.1998 38.3536 18.7612 42.3781 17.8295 41.9443C17.6123 41.8235 17.421 41.6605 17.2666 41.4647C17.1121 41.269 16.9976 41.0443 16.9297 40.8036C16.9297 39.5987 17.1089 37.7109 17.8813 36.2971C18.6059 34.9757 20.0751 34.1282 21.7155 33.6743C22.2474 33.7285 22.7737 33.8293 23.2883 33.9756Z" fill="black"/>
<path d="M18.4267 44.2899C18.3352 43.2095 18.9682 40.173 19.8442 38.3535C20.7201 36.534 23.8934 35.0519 24.3593 35.0037C25.498 34.8912 25.8325 35.4054 25.9957 35.2648C26.159 35.1242 24.8291 34.0197 24.4787 33.8791C23.9561 33.7092 23.4023 33.6598 22.8582 33.7345C22.3685 33.8228 19.3943 34.6061 18.4984 36.0801C17.6026 37.5542 16.635 41.4462 17.0332 42.3339C17.1367 42.5467 17.4314 42.6431 17.5946 42.9484C17.7857 43.35 17.945 43.8119 18.1162 44.0851C18.2874 44.3582 18.4347 44.3823 18.4267 44.2899Z" fill="#A3A30A"/>
<path d="M19.9875 37.5783C19.7113 37.458 19.445 37.3157 19.1912 37.1526C18.9244 36.9909 18.6783 36.7967 18.4586 36.5742C18.4586 36.5742 18.4148 36.5742 18.4307 36.5983C18.6238 36.8561 18.8563 37.0811 19.1195 37.2651C19.384 37.4435 19.6801 37.569 19.9915 37.6346C19.9989 37.634 20.0058 37.6306 20.0106 37.6249C20.0155 37.6193 20.0179 37.6119 20.0174 37.6045C20.0169 37.597 20.0134 37.5901 20.0078 37.5852C20.0022 37.5803 19.9949 37.5778 19.9875 37.5783Z" fill="#263238"/>
<path d="M18.2516 43.2215C18.2078 43.1493 18.148 43.089 18.1003 43.0207C18.0439 42.9438 17.9971 42.8601 17.9609 42.7717C17.9115 42.5987 17.8434 42.4316 17.7578 42.2736C17.6695 42.1564 17.5679 42.0499 17.4552 41.9563C17.3202 41.8579 17.222 41.7164 17.1765 41.5547H17.1447C17.1925 41.88 17.4433 42.0768 17.6265 42.3259C17.7196 42.4964 17.7969 42.6752 17.8574 42.8601C17.9279 43.0288 18.0509 43.1697 18.2078 43.2617C18.2277 43.2738 18.2635 43.2497 18.2516 43.2215Z" fill="#263238"/>
<path d="M18.4347 42.0086C18.3153 41.9042 18.1918 41.8118 18.0804 41.6953C17.9689 41.5788 17.8813 41.4543 17.7897 41.3298C17.6981 41.2053 17.6265 41.0727 17.5389 40.9281C17.4513 40.7835 17.3199 40.643 17.2243 40.4863C17.2243 40.4863 17.1845 40.4863 17.1964 40.5104C17.296 40.6671 17.3637 40.8478 17.4552 41.0085C17.5373 41.1478 17.6277 41.2819 17.726 41.4101C17.8189 41.5345 17.9228 41.6502 18.0366 41.7555C18.1504 41.866 18.2861 41.9508 18.4347 42.0046C18.4347 42.0046 18.4427 42.0166 18.4347 42.0086Z" fill="#263238"/>
<path d="M18.6577 40.9042C18.4053 40.7505 18.1772 40.5596 17.9808 40.3379C17.7897 40.121 17.6065 39.892 17.4314 39.6631C17.4314 39.6631 17.3915 39.6631 17.4035 39.6631C17.5337 39.9351 17.6983 40.1889 17.8932 40.4182C17.9879 40.5305 18.0963 40.6304 18.2157 40.7154C18.3451 40.8022 18.4824 40.8761 18.6258 40.9363C18.6258 40.9363 18.6776 40.9363 18.6577 40.9042Z" fill="#263238"/>
<path d="M18.9205 39.8359C18.7986 39.7773 18.6891 39.6955 18.598 39.595C18.4865 39.4905 18.379 39.3821 18.2755 39.2696C18.172 39.1612 18.0685 39.0608 17.9689 38.9523C17.8614 38.8507 17.7759 38.7276 17.7181 38.5908C17.7181 38.5908 17.6822 38.5908 17.6862 38.5908C17.7175 38.7373 17.7815 38.8747 17.8734 38.9925C17.9621 39.1352 18.0634 39.2697 18.176 39.3941C18.2873 39.5099 18.4056 39.6185 18.5303 39.7195C18.6356 39.8165 18.7674 39.8795 18.9086 39.9002C18.9127 39.901 18.917 39.9009 18.9212 39.9001C18.9254 39.8992 18.9293 39.8975 18.9328 39.8951C18.9364 39.8926 18.9394 39.8895 18.9417 39.8859C18.944 39.8823 18.9456 39.8783 18.9464 39.8741C18.9472 39.8699 18.9471 39.8655 18.9463 39.8613C18.9454 39.8571 18.9437 39.8532 18.9413 39.8496C18.9389 39.8461 18.9358 39.843 18.9322 39.8407C18.9287 39.8383 18.9247 39.8367 18.9205 39.8359Z" fill="#263238"/>
<path d="M19.024 38.5261C18.9072 38.4458 18.7957 38.3614 18.6896 38.273C18.586 38.1807 18.4825 38.0883 18.383 37.9919C18.2834 37.8955 18.168 37.7911 18.0684 37.6826C18.0684 37.6826 18.0286 37.6826 18.0406 37.7027C18.1164 37.8292 18.203 37.9488 18.2994 38.0602C18.3945 38.1689 18.4969 38.2709 18.6059 38.3654C18.7139 38.4604 18.8284 38.5476 18.9484 38.6265C19.0662 38.7174 19.202 38.7817 19.3465 38.8153C19.3498 38.8131 19.3525 38.8101 19.3544 38.8066C19.3562 38.8031 19.3572 38.7992 19.3572 38.7952C19.3572 38.7912 19.3562 38.7873 19.3544 38.7838C19.3525 38.7803 19.3498 38.7773 19.3465 38.7751C19.2469 38.6822 19.1389 38.5989 19.024 38.5261Z" fill="#263238"/>
<path d="M20.7082 36.8392C20.5808 36.7268 20.4574 36.6143 20.31 36.5099C20.1627 36.4054 20.0274 36.3131 19.8761 36.2247C19.5903 36.0477 19.2858 35.9036 18.9683 35.7949C18.9683 35.7949 18.9324 35.815 18.9683 35.8271C19.5336 36.1805 20.1189 36.5099 20.6843 36.8714C20.6885 36.8745 20.6938 36.8759 20.6991 36.8752C20.7043 36.8744 20.709 36.8716 20.7122 36.8673C20.7154 36.8631 20.7167 36.8577 20.716 36.8524C20.7152 36.8472 20.7124 36.8424 20.7082 36.8392Z" fill="#263238"/>
<path d="M21.2059 35.823C21.0829 35.7149 20.9496 35.6193 20.8078 35.5379C20.4936 35.3783 20.1623 35.2556 19.8203 35.1724C19.7965 35.1724 19.7845 35.1965 19.8203 35.2045C20.1269 35.3451 20.4335 35.4816 20.7281 35.6383C20.8715 35.7186 21.0188 35.7989 21.1542 35.8913C21.2895 35.9837 21.405 36.1082 21.5523 36.2086C21.5523 36.2086 21.5802 36.2086 21.5523 36.2086C21.4641 36.0576 21.3463 35.9264 21.2059 35.823Z" fill="#263238"/>
<path d="M22.0222 35.2648C21.9002 35.1541 21.7667 35.0571 21.624 34.9756C21.3634 34.8161 21.0781 34.702 20.7799 34.6382C20.7799 34.6382 20.752 34.6663 20.7799 34.6743C21.0568 34.7836 21.3234 34.9181 21.5762 35.076C21.7036 35.1563 21.831 35.2447 21.9744 35.333C22.1177 35.4214 22.2173 35.5339 22.3486 35.6062C22.3486 35.6062 22.3686 35.6062 22.3486 35.6062C22.2508 35.4822 22.1415 35.3678 22.0222 35.2648Z" fill="#263238"/>
<path d="M22.5756 34.6304C22.4521 34.5581 22.3207 34.4898 22.1774 34.4256C22.0529 34.3551 21.9187 34.3037 21.7792 34.2729V34.3091L22.5039 34.7389C22.7172 34.8879 22.9147 35.0589 23.0932 35.249C23.0932 35.249 23.117 35.249 23.0932 35.249C22.9866 34.9947 22.8061 34.7791 22.5756 34.6304Z" fill="#263238"/>
<path d="M23.344 34.3329C23.1084 34.1733 22.845 34.0601 22.5676 33.9995C22.5477 33.9995 22.5397 34.0276 22.5676 34.0357C22.827 34.1311 23.0701 34.2666 23.2883 34.4373C23.5094 34.5993 23.7123 34.7852 23.8935 34.9916C23.8935 34.9916 23.9213 34.9916 23.9134 34.9916C23.7796 34.7285 23.5841 34.5024 23.344 34.3329Z" fill="#263238"/>
<path d="M25.1078 34.6021C25.0346 34.5283 24.9576 34.4586 24.8769 34.3933C24.7961 34.3285 24.711 34.2694 24.6221 34.2165C24.5305 34.1603 24.4389 34.1081 24.3513 34.0479C24.3513 34.0479 24.3115 34.0679 24.3513 34.08C24.4445 34.1346 24.5325 34.1978 24.6141 34.2688L24.845 34.4616L25.0799 34.6543C25.1537 34.7265 25.2322 34.7936 25.3149 34.8552C25.2556 34.7632 25.1861 34.6783 25.1078 34.6021Z" fill="#263238"/>
<path d="M49.4552 27.003C49.2893 28.6124 48.6832 30.1436 47.7045 31.4257C46.7258 32.7077 45.4131 33.69 43.9129 34.2629C42.4128 34.8358 40.7843 34.9767 39.2093 34.67C37.6344 34.3632 36.175 33.6208 34.9941 32.5257L30.6622 33.1683L32.8281 29.3928C32.3319 28.1644 32.1195 26.8381 32.2072 25.5146C32.295 24.1911 32.6805 22.9051 33.3344 21.7543C33.9884 20.6036 34.8937 19.6182 35.9816 18.8731C37.0695 18.1279 38.3113 17.6426 39.6129 17.454C40.9144 17.2653 42.2415 17.3783 43.4933 17.7843C44.7452 18.1903 45.8888 18.8787 46.8375 19.7972C47.7862 20.7157 48.515 21.8402 48.9686 23.0852C49.4222 24.3303 49.5886 25.6632 49.4552 26.9829V27.003Z" fill="white"/>
<path d="M49.4552 27.003C49.2865 28.6099 48.6816 30.1387 47.7073 31.4212C47.231 32.0691 46.6589 32.6393 46.0111 33.1122C45.3734 33.6017 44.6694 33.9966 43.9208 34.285C43.1738 34.58 42.39 34.7692 41.5916 34.8473C41.1943 34.8811 40.7954 34.8891 40.3971 34.8714C39.9963 34.8584 39.5971 34.8155 39.2026 34.7429C37.6069 34.4476 36.1246 33.709 34.9224 32.6101L35.022 32.6422L30.686 33.305L30.3715 33.3532L30.5308 33.076L32.6848 29.2884V29.4411C32.1753 28.1899 31.9574 26.8374 32.0479 25.4878C32.1383 24.1383 32.5346 22.8277 33.2064 21.657C33.8811 20.4927 34.808 19.4972 35.9178 18.7451C37.2992 17.8268 38.9101 17.3219 40.564 17.2888C42.218 17.2558 43.8475 17.6959 45.2638 18.5582C46.6801 19.4205 47.8255 20.6697 48.5672 22.1614C49.309 23.6531 49.6168 25.3261 49.4552 26.987V27.003ZM49.4552 27.003C49.5934 25.6881 49.4306 24.3587 48.9793 23.1173C48.528 21.8759 47.8003 20.7555 46.8521 19.8425C45.904 18.9295 44.7607 18.2482 43.5105 17.8511C42.2602 17.454 40.9362 17.3517 39.6406 17.5521C38.3541 17.7461 37.1285 18.2338 36.0572 18.978C34.9987 19.7281 34.1144 20.7011 33.4652 21.8297C32.8285 22.9612 32.4529 24.2229 32.3663 25.5209C32.288 26.82 32.496 28.1204 32.9754 29.3286L33.0073 29.4049L32.9675 29.4772L30.7856 33.2447L30.6343 33.0158L34.9662 32.4012H35.026L35.0697 32.4414C36.226 33.5339 37.6614 34.2795 39.2146 34.5943C39.6081 34.6756 40.0076 34.724 40.409 34.7389C40.8067 34.7676 41.2059 34.7676 41.6035 34.7389C42.3946 34.6768 43.1732 34.5038 43.9168 34.2247C44.6643 33.9523 45.3674 33.5692 46.0032 33.0881C46.3244 32.8524 46.6303 32.5961 46.9189 32.3209C47.2022 32.0362 47.4681 31.7344 47.7152 31.4172C48.6864 30.1351 49.2885 28.6078 49.4552 27.003Z" fill="#263238"/>
<path d="M39.8317 31.0756L36.1368 27.3001L37.3791 26.063L39.5371 28.2681L44.0243 21.1709L45.4975 22.1188L39.8317 31.0756Z" fill="#A3A30A"/>
</svg>
