<svg width="92" height="90" viewBox="0 0 92 90" fill="none" xmlns="http://www.w3.org/2000/svg">
<g filter="url(#filter0_d_506_5485)">
<rect x="22.7255" y="22" width="46.902" height="46" rx="6" fill="#1BA318"/>
</g>
<path d="M51.6144 32H40.7386C40.0175 32 39.3259 32.2739 38.816 32.7615C38.3061 33.2491 38.0197 33.9104 38.0197 34.6V55.4C38.0197 56.0896 38.3061 56.7509 38.816 57.2385C39.3259 57.7261 40.0175 58 40.7386 58H51.6144C52.3355 58 53.0271 57.7261 53.537 57.2385C54.0469 56.7509 54.3334 56.0896 54.3334 55.4V34.6C54.3334 33.9104 54.0469 33.2491 53.537 32.7615C53.0271 32.2739 52.3355 32 51.6144 32ZM47.536 56.7H44.817V55.4H47.536V56.7ZM51.6144 54.1H40.7386V35.9H51.6144V54.1Z" fill="white"/>
<defs>
<filter id="filter0_d_506_5485" x="0.725464" y="0" width="90.902" height="90" filterUnits="userSpaceOnUse" color-interpolation-filters="sRGB">
<feFlood flood-opacity="0" result="BackgroundImageFix"/>
<feColorMatrix in="SourceAlpha" type="matrix" values="0 0 0 0 0 0 0 0 0 0 0 0 0 0 0 0 0 0 127 0" result="hardAlpha"/>
<feMorphology radius="3" operator="erode" in="SourceAlpha" result="effect1_dropShadow_506_5485"/>
<feOffset/>
<feGaussianBlur stdDeviation="12.5"/>
<feComposite in2="hardAlpha" operator="out"/>
<feColorMatrix type="matrix" values="0 0 0 0 0 0 0 0 0 0 0 0 0 0 0 0 0 0 0.11 0"/>
<feBlend mode="normal" in2="BackgroundImageFix" result="effect1_dropShadow_506_5485"/>
<feBlend mode="normal" in="SourceGraphic" in2="effect1_dropShadow_506_5485" result="shape"/>
</filter>
</defs>
</svg>
