<svg width="92" height="90" viewBox="0 0 92 90" fill="none" xmlns="http://www.w3.org/2000/svg">
<g filter="url(#filter0_d_506_5484)">
<rect x="22.1372" y="22" width="46.902" height="46" rx="6" fill="#D81515"/>
</g>
<path d="M57.6299 49.0514C57.8337 49.1669 58.0684 49.2194 58.3031 49.2018C58.5378 49.1843 58.7617 49.0976 58.9453 48.9531C59.1289 48.8087 59.2637 48.6132 59.332 48.3922C59.4004 48.1713 59.3991 47.9353 59.3283 47.7151L55.5189 35.8581C55.4508 35.646 55.3213 35.4579 55.146 35.3167C54.9708 35.1756 54.7574 35.0875 54.532 35.0633C54.3066 35.0391 54.0789 35.0797 53.8766 35.1803C53.6744 35.2809 53.5064 35.437 53.3931 35.6297L40.9348 56.7931C40.7799 57.0562 40.7379 57.3689 40.8181 57.6623C40.8983 57.9558 41.094 58.206 41.3623 58.3579C41.6305 58.5098 41.9493 58.551 42.2485 58.4723C42.5477 58.3937 42.8029 58.2017 42.9577 57.9386L50.5495 45.0421L57.6299 49.0514Z" fill="white"/>
<path d="M33.3262 41.462L40.4066 45.4713L47.9984 32.5748C48.1533 32.3117 48.4084 32.1197 48.7076 32.0411C49.0068 31.9625 49.3256 32.0036 49.5939 32.1555C49.8621 32.3074 50.0579 32.5576 50.138 32.8511C50.2182 33.1445 50.1762 33.4572 50.0214 33.7203L37.5631 54.8838C37.4498 55.0764 37.2817 55.2325 37.0795 55.3331C36.8772 55.4337 36.6495 55.4743 36.4241 55.4501C36.1987 55.4259 35.9853 55.3378 35.8101 55.1967C35.6349 55.0556 35.5053 54.8674 35.4372 54.6553L31.6279 42.7983C31.5571 42.5782 31.5557 42.3421 31.6241 42.1212C31.6924 41.9003 31.8272 41.7048 32.0109 41.5603C32.1945 41.4158 32.4183 41.3291 32.653 41.3116C32.8877 41.2941 33.1224 41.3465 33.3262 41.462Z" fill="white"/>
<defs>
<filter id="filter0_d_506_5484" x="0.137207" y="0" width="90.902" height="90" filterUnits="userSpaceOnUse" color-interpolation-filters="sRGB">
<feFlood flood-opacity="0" result="BackgroundImageFix"/>
<feColorMatrix in="SourceAlpha" type="matrix" values="0 0 0 0 0 0 0 0 0 0 0 0 0 0 0 0 0 0 127 0" result="hardAlpha"/>
<feMorphology radius="3" operator="erode" in="SourceAlpha" result="effect1_dropShadow_506_5484"/>
<feOffset/>
<feGaussianBlur stdDeviation="12.5"/>
<feComposite in2="hardAlpha" operator="out"/>
<feColorMatrix type="matrix" values="0 0 0 0 0 0 0 0 0 0 0 0 0 0 0 0 0 0 0.11 0"/>
<feBlend mode="normal" in2="BackgroundImageFix" result="effect1_dropShadow_506_5484"/>
<feBlend mode="normal" in="SourceGraphic" in2="effect1_dropShadow_506_5484" result="shape"/>
</filter>
</defs>
</svg>
