<svg width="21" height="19" viewBox="0 0 21 19" fill="none" xmlns="http://www.w3.org/2000/svg">
<path d="M19.4923 9.78788L21 11.4115L13.9677 19L10.2308 14.9697L11.7385 13.3461L13.9677 15.7412L19.4923 9.78788ZM7.53846 14.9697L10.7692 18.4242H0V16.1212C0 13.5764 3.85538 11.5152 8.61539 11.5152L10.6508 11.6418L7.53846 14.9697ZM8.61539 0C9.75786 0 10.8535 0.48528 11.6614 1.34908C12.4692 2.21289 12.9231 3.38446 12.9231 4.60606C12.9231 5.82766 12.4692 6.99923 11.6614 7.86304C10.8535 8.72684 9.75786 9.21212 8.61539 9.21212C7.47291 9.21212 6.37724 8.72684 5.56939 7.86304C4.76154 6.99923 4.30769 5.82766 4.30769 4.60606C4.30769 3.38446 4.76154 2.21289 5.56939 1.34908C6.37724 0.48528 7.47291 0 8.61539 0Z" fill="#808000"/>
</svg>
