<svg width="17" height="18" viewBox="0 0 17 18" fill="none" xmlns="http://www.w3.org/2000/svg">
<path d="M12.875 5.75C14.1867 5.75 15.25 4.68668 15.25 3.375C15.25 2.06332 14.1867 1 12.875 1C11.5633 1 10.5 2.06332 10.5 3.375C10.5 4.68668 11.5633 5.75 12.875 5.75Z" stroke="black" stroke-width="1.66667" stroke-linecap="round" stroke-linejoin="round"/>
<path d="M3.375 11.2915C4.68668 11.2915 5.75 10.2282 5.75 8.9165C5.75 7.60483 4.68668 6.5415 3.375 6.5415C2.06332 6.5415 1 7.60483 1 8.9165C1 10.2282 2.06332 11.2915 3.375 11.2915Z" stroke="black" stroke-width="1.66667" stroke-linecap="round" stroke-linejoin="round"/>
<path d="M12.875 16.833C14.1867 16.833 15.25 15.7697 15.25 14.458C15.25 13.1463 14.1867 12.083 12.875 12.083C11.5633 12.083 10.5 13.1463 10.5 14.458C10.5 15.7697 11.5633 16.833 12.875 16.833Z" stroke="black" stroke-width="1.66667" stroke-linecap="round" stroke-linejoin="round"/>
<path d="M5.42542 10.1118L10.8325 13.2626" stroke="black" stroke-width="1.66667" stroke-linecap="round" stroke-linejoin="round"/>
<path d="M10.8246 4.56982L5.42542 7.72066" stroke="black" stroke-width="1.66667" stroke-linecap="round" stroke-linejoin="round"/>
</svg>
